<svg xmlns="http://www.w3.org/2000/svg" viewBox="0 0 623.62 255.12"><defs><style>.cls-1{fill:#fff;}.cls-2{fill:#00a091;}.cls-3{fill:#8a9297;}.cls-4{fill:#646565;}.cls-5{fill:#028579;}.cls-6{fill:#1a3e37;}.cls-7{fill:#10564a;}.cls-8{fill:#19473e;}.cls-9{fill:#145146;}.cls-10{fill:#174c42;}.cls-11{fill:#00a191;}.cls-12{fill:#0a5c4f;}.cls-13{fill:#009b7b;}.cls-14{fill:#007c68;}.cls-15{fill:#007461;}.cls-16{fill:#006d5b;}.cls-17{fill:#0c5c4f;}.cls-18{fill:#006656;}.cls-19{fill:#007360;}.cls-20{fill:#00715f;}.cls-21{fill:#006b5a;}.cls-22{fill:#036152;}.cls-23{fill:#007a66;}.cls-24{fill:#007d68;}.cls-25{fill:#006b5b;}.cls-26{fill:#076152;}.cls-27{fill:#006657;}.cls-28{fill:#007b68;}.cls-29{fill:#00816c;}.cls-30{fill:#00836f;}.cls-31{fill:#60a192;}.cls-32{fill:#31b3a8;}.cls-33{fill:#95beb9;}.cls-34{fill:#39b3a6;}.cls-35{fill:#24b1a6;}.cls-36{fill:#9acfc8;}.cls-37{fill:#93a39b;}.cls-38{fill:#acc3c3;}.cls-39{fill:#acd7d3;}.cls-40{fill:#98cfc9;}.cls-41{fill:#60bbad;}.cls-42{fill:#9fb3ab;}.cls-43{fill:#8ecac1;}.cls-44{fill:#82c5b9;}.cls-45{fill:#c7e3e0;}.cls-46{fill:#fcfdff;}.cls-47{fill:#5ebcb3;}.cls-48{fill:#64bcb1;}.cls-49{fill:#60bbb2;}.cls-50{fill:#64867d;}.cls-51{fill:#009c7c;}.cls-52{fill:#009c7e;}.cls-53{fill:#f2f9f9;}</style></defs><title>cippest</title><g id="BG"><rect class="cls-1" width="623.62" height="255.12"/></g><g id="Logo"><path class="cls-2" d="M103.33,77.84A77,77,0,0,0,94.82,67.1,114.31,114.31,0,0,0,71.61,48.29,137.4,137.4,0,0,0,54.07,39c-.06-.28,0-.44.33-.32a69.77,69.77,0,0,1,8.4,2.11,101.09,101.09,0,0,1,43.84,27,95.14,95.14,0,0,1,14.23,18.63c.15.27.26.57.62.74l.85-1.31a27.54,27.54,0,0,1,5.56-6.41,23.41,23.41,0,0,1,17.8-5.27,16.09,16.09,0,0,1,6.24,2.1,29.12,29.12,0,0,1,8.33,7.15,31.17,31.17,0,0,1,3.17,4.51c.26.46.21.63-.21.91-.22.15-.45.27-.67.41A103.62,103.62,0,0,0,135.39,113a123.87,123.87,0,0,0-8.06,11.1,2.35,2.35,0,0,1-.67.86c-.64.38-1.23,0-1.81-.15-12.64-4.1-25.07-8.75-37.34-13.82a15.91,15.91,0,0,1-1.84-.9c-.86-.78-1.9-1.41-2.29-2.6-.46-.57-.9-1.16-1.4-1.7A169.23,169.23,0,0,0,59.33,85.05,169.43,169.43,0,0,0,30.27,67.15c-.19-.09-.37-.2-.55-.31,0-.6.32-.5.68-.35,2.86.68,5.65,1.63,8.43,2.58A154.91,154.91,0,0,1,78.48,89.13c2.88,2,5.63,4.23,8.36,6.45a2.05,2.05,0,0,1,.66.34l.1.05-.07-.11a2,2,0,0,1-.31-.66,60.07,60.07,0,0,0-5.4-6.76A104.26,104.26,0,0,0,65.73,74.13,165.34,165.34,0,0,0,39.49,58.62L34.8,56.39c0-.61.34-.43.66-.33,2.67.6,5.26,1.45,7.86,2.28A163,163,0,0,1,73.24,71.2,118.39,118.39,0,0,1,94,85.69c.16.14.33.26.5.38a.31.31,0,0,0,.25.23l.54.47a.92.92,0,0,1,.61.44,6.88,6.88,0,0,0,.48.52s0,0,0,0a3.23,3.23,0,0,1-.39-.47,1,1,0,0,1-.2-.52l-.17-.29a.57.57,0,0,0-.23-.31h0a2,2,0,0,1-.27-.37,51.75,51.75,0,0,0-4.75-6.07A114,114,0,0,0,74.59,64.94a189,189,0,0,0-26.11-17l-1.38-.76a1.38,1.38,0,0,1-.34-.21h0c-.05-.31,0-.47.38-.37a.46.46,0,0,1,.27.07c.19.17.47.11.67.26,2.37.71,4.65,1.64,6.95,2.54A180,180,0,0,1,84,63.69,111.3,111.3,0,0,1,101.5,76.76L103,78.17c.25.15.54.26.68.54s.13.12,0,0A2.22,2.22,0,0,1,103.33,77.84Z"/><path class="cls-3" d="M393.93,161.24a31.07,31.07,0,0,1-1.55-6.87,41.62,41.62,0,0,1-.3-5.19A36.06,36.06,0,0,1,411,117.65a39.24,39.24,0,0,1,12.6-4.33,33.08,33.08,0,0,1,18.8,2.33,38.25,38.25,0,0,1,22.15,27.14,30.43,30.43,0,0,1,.5,6.59,4.54,4.54,0,0,1-4.45,4.57c-.58,0-1.16,0-1.73,0h-55c-.52,0-1.05,0-1.57,0a.38.38,0,0,0-.36.43,5.47,5.47,0,0,0,.11.78,34.73,34.73,0,0,0,1.68,5.4c-.9.73-2,.46-3,.59A28.18,28.18,0,0,1,393.93,161.24Z"/><path class="cls-4" d="M306.57,158a5.89,5.89,0,0,1-.53,2.13,35.41,35.41,0,0,1-10,15.06,47.65,47.65,0,0,1-5.59,4.37,35.19,35.19,0,0,1-15.23,5.63,38.79,38.79,0,0,1-10.84-.09,31.7,31.7,0,0,1-8.56-2.62,47.87,47.87,0,0,1-10.92-7.14c-.31-.26-.54-.64-1.06-.71a2.43,2.43,0,0,0-.11,1.21q0,17.35,0,34.7c0,.42,0,.84,0,1.26a3.86,3.86,0,0,1-1.87,3.44,8.32,8.32,0,0,1-3.5,1.35,3.76,3.76,0,0,1-3.38-1.34,7.39,7.39,0,0,1-1.94-5.35q0-29.5,0-59c0-.47,0-.95,0-1.42.13-.66.5-1.06,1.19-.95a87.34,87.34,0,0,1,9.44,1.69,1.06,1.06,0,0,1,.38.27,3.79,3.79,0,0,1,.63,1.92c1,7.37,5,12.8,10.84,17a24.71,24.71,0,0,0,14.92,4.61c6.11,0,11.52-1.53,16.24-5.37a30.28,30.28,0,0,0,7.57-9.78c.4-.77.61-1.71,1.49-2.16,1.32-.42,2.61.08,3.91.14,1.78.08,3.56.29,5.33.47A2.27,2.27,0,0,1,306.57,158Z"/><path class="cls-3" d="M312.92,158.71c0-3.52-.14-7.05,0-10.57a42.32,42.32,0,0,1,3.37-15.46,33.43,33.43,0,0,1,5.25-8.39,38.06,38.06,0,0,1,10.77-8.63q1.73-.94,3.52-1.77a26.13,26.13,0,0,1,7.32-2.36,59.68,59.68,0,0,1,7.19-.82A34.16,34.16,0,0,1,365.47,114a38.77,38.77,0,0,1,21.44,26.15,34.91,34.91,0,0,1,.84,7.5A38.28,38.28,0,0,1,385.64,161a1,1,0,0,1-.19.25,43.74,43.74,0,0,1-11.71.27c-.85-.61-.22-1.22,0-1.79,4.11-9.31,3.87-18.34-2.22-26.72-4.28-5.88-10-9.85-17.41-10.64-10.63-1.14-19,1.47-25.72,11.88-4.79,7.39-5.24,15.23-2.59,23.43.21.67.93,1.39.06,2.12-4.07.18-8.1-.53-12.15-.68A1.19,1.19,0,0,1,312.92,158.71Z"/><path class="cls-4" d="M312.92,158.71a16.49,16.49,0,0,1,4.51.24l.16,0c2.25-.1,4.46.41,6.71.36a4,4,0,0,1,1.84.27c.74,0,.85.68,1.14,1.15,4.34,7,10.3,11.89,18.54,13.08,8.58,1.24,16.55-.37,22.83-7a35.87,35.87,0,0,0,3.86-5c.22-.33.4-.78.94-.67l8.18,0a9.37,9.37,0,0,0,2.18-.17,1.66,1.66,0,0,1,1.64.21,20.86,20.86,0,0,1-2.12,4.73,40.53,40.53,0,0,1-12.53,13.32A34.49,34.49,0,0,1,356,185.11a35.08,35.08,0,0,1-25.57-5.48,65,65,0,0,1-5.79-4.36c-.27-.22-.46-.58-1-.58a2.46,2.46,0,0,0-.09,1.18q0,17.35,0,34.69c0,.42,0,.84,0,1.26a3.82,3.82,0,0,1-1.73,3.35,8.06,8.06,0,0,1-3.78,1.46,3.73,3.73,0,0,1-3.23-1.35,7.36,7.36,0,0,1-1.95-5.34q0-24.92,0-49.83C312.88,159.65,312.9,159.18,312.92,158.71Z"/><path class="cls-3" d="M244,150.79a4.79,4.79,0,0,0-2.11-.52c-2.15-.42-4.33-.71-6.49-1.06a7.8,7.8,0,0,1-1.07-.23,1,1,0,0,0-1.31.55c0-.42,0-.84,0-1.25A50.83,50.83,0,0,1,234.88,137a34.45,34.45,0,0,1,7.77-13.73,42.84,42.84,0,0,1,14.78-10,27.49,27.49,0,0,1,7.44-1.95c1.77-.23,3.54-.52,5.32-.57a33.92,33.92,0,0,1,13.4,2.42A38.73,38.73,0,0,1,307,140a28.18,28.18,0,0,1,.84,6.23,43.52,43.52,0,0,1-.38,8,13.83,13.83,0,0,1-.9,3.8l-5.41-.56c-.31,0-.62,0-.93-.06a14.38,14.38,0,0,1-2.63-.25,10.48,10.48,0,0,0-2-.06c-.45-.68,0-1.32.13-2,1.22-5.21,1.42-10.43-.45-15.51-3.06-8.32-8.86-14-17.35-16.49-7-2-14-1.6-20.56,2.21-4.55,2.66-7.63,6.66-10.13,11.19a22.51,22.51,0,0,0-2.75,11.19C244.46,148.77,244.78,149.87,244,150.79Z"/><path class="cls-4" d="M156.6,132.46a28.18,28.18,0,0,0-4.84,9.14,27,27,0,0,0,19.36,34.31c9.31,2.29,17.69,0,24.91-6.35.32-.28.61-.58.93-.85a4.78,4.78,0,0,1,6.85.86,3.71,3.71,0,0,1,.4,4.15,14,14,0,0,1-3,4A26.76,26.76,0,0,1,194.8,182a35.72,35.72,0,0,1-12.15,3.68c-10.3,1.08-19.77-1.08-28-7.6a34.46,34.46,0,0,1-12.93-21.7,36.24,36.24,0,0,1,4.13-24.82c.39-.68.84-1.33,1.26-2a2.29,2.29,0,0,1,2-.09c2.06.56,4.1,1.16,6.16,1.72C155.86,131.41,156.63,131.53,156.6,132.46Z"/><path class="cls-3" d="M495,150.73a47.13,47.13,0,0,1-16.09-4.67,19.58,19.58,0,0,1-5.11-3.65,14.29,14.29,0,0,1-3.81-7.8,19.25,19.25,0,0,1,.5-8.43,16.41,16.41,0,0,1,8-9.92,25.81,25.81,0,0,1,8.9-3,35.18,35.18,0,0,1,7.37-.59,36.05,36.05,0,0,1,15.9,4,17.32,17.32,0,0,1,4.49,3.43,8,8,0,0,1,2.22,5.73,5.35,5.35,0,0,1-.68,2.56,4.15,4.15,0,0,1-3.56,2.24,4.51,4.51,0,0,1-4.63-2.61,11.14,11.14,0,0,0-1.53-2.38,10.82,10.82,0,0,0-5-2.91,22.75,22.75,0,0,0-6.67-1.06,37.61,37.61,0,0,0-7.07.4,12,12,0,0,0-7.19,3.91,8.32,8.32,0,0,0-1.79,6.94,5.58,5.58,0,0,0,1.59,3,14.41,14.41,0,0,0,5.73,3.5A40.37,40.37,0,0,0,493,141a69.69,69.69,0,0,1,11.6,2.88c1.33.49,2.64,1,3.93,1.62a5.71,5.71,0,0,1,1.86,1.15c0,.89-.82.84-1.36,1-4.53,1-9,2.42-13.64,2.94A1.38,1.38,0,0,0,495,150.73Z"/><path class="cls-4" d="M495,150.73a1.08,1.08,0,0,1,.88-.56c4.72-.89,9.38-2.06,14-3.19a.81.81,0,0,0,.51-.33,4.43,4.43,0,0,1,.73.28,23.2,23.2,0,0,1,6.79,6,17.08,17.08,0,0,1,3.41,10.61,20.16,20.16,0,0,1-7.11,15.57,26.31,26.31,0,0,1-10.05,5.41,36.39,36.39,0,0,1-12.79,1.32,30.55,30.55,0,0,1-10.82-2.59,23.79,23.79,0,0,1-9.33-7.07,21.44,21.44,0,0,1-3.27-6.08,5.44,5.44,0,0,1,.18-4.29,4.64,4.64,0,0,1,7.06-1.76,6.24,6.24,0,0,1,1.68,1.86,8,8,0,0,1,.5,1,14.45,14.45,0,0,0,7.9,7.75,22.1,22.1,0,0,0,10.76,1.81,24.18,24.18,0,0,0,7.5-1.67,16.47,16.47,0,0,0,4.22-2.43,10.61,10.61,0,0,0,3.92-10.67,9,9,0,0,0-2.78-4.85,16.51,16.51,0,0,0-3-2.29,28.8,28.8,0,0,0-8.92-3.46C496.36,151,495.69,150.86,495,150.73Z"/><path class="cls-3" d="M537.22,168.51a1.49,1.49,0,0,1-.24-.9c0-.74-.05-1.47-.05-2.21q0-12.86,0-25.72c0-3.63,0-7.26.06-10.89,0-1.88.09-1.78-1.83-1.76-2.1,0-4.21.06-6.31.09a5.25,5.25,0,0,1-4.89-3.54,3.08,3.08,0,0,1-.07-2c.17-.5.26-1,.48-1.5.89-2,2.24-2.9,4.8-2.8,2.31.09,4.63.07,6.94.08.78,0,.87-.11.88-.95,0-1.31,0-2.63,0-3.94,0-5,0-10.1,0-15.15a10.53,10.53,0,0,1,.61-3.55,7.09,7.09,0,0,1,.77-1.55,3,3,0,0,1,2-1.37,6.73,6.73,0,0,1,4.83,1,3.13,3.13,0,0,1,1.56,2.75c0,.47,0,.95,0,1.42q0,9.78,0,19.57c0,1.94-.1,1.79,1.8,1.79,2.58,0,5.15,0,7.73,0a14.85,14.85,0,0,0,2.51-.16,3.8,3.8,0,0,1,3.86,1.58,7.28,7.28,0,0,1,1.35,3,3.66,3.66,0,0,1-.73,3.12,6.43,6.43,0,0,1-1.89,1.64,4.17,4.17,0,0,1-2.4.6c-3.52-.2-7-.1-10.57-.12-1.67,0-1.66,0-1.66,1.64,0,2,0,4,0,6-.92,1.12-2.33,1.37-3.55,1.94a41.63,41.63,0,0,1-3.95,1.58,2.17,2.17,0,0,0-1.52,2.42c0,4.31,0,8.61,0,12.92s0,8.51,0,12.76C537.74,167.06,537.9,167.89,537.22,168.51Z"/><path class="cls-4" d="M393.93,161.24a.9.9,0,0,1,.83-.35c.73,0,1.47,0,2.2,0a25.13,25.13,0,0,0,4.23-.23,13.76,13.76,0,0,1,2.51,0l.69,1.24c4.38,8.06,11.1,13,20.13,14.4a26.34,26.34,0,0,0,22-6.42c.52-.44,1-.92,1.53-1.36a4.75,4.75,0,0,1,6.72,1,5,5,0,0,1-.36,6,36.67,36.67,0,0,1-5.24,4.77,28.63,28.63,0,0,1-10.92,4.69,44.59,44.59,0,0,1-12.07.9A36,36,0,0,1,394,161.71,3.73,3.73,0,0,1,393.93,161.24Z"/><path class="cls-5" d="M85.62,109.75c1.55.63,3.11,1.24,4.65,1.88,4.3,1.8,8.64,3.47,13,5.12,3.77,1.43,7.57,2.76,11.36,4.12,4,1.43,8,2.73,12,4.08-.2.37-.38.74-.6,1.1a130.56,130.56,0,0,0-13.14,28c-.06.2-.13.4-.2.6s-.31.28-.61,0a1.74,1.74,0,0,1-.27-.37A153.65,153.65,0,0,0,104,137.35a67.25,67.25,0,0,0-3.42-6c-.44-.9-1-1.72-1.49-2.6l-.22-.34a3.62,3.62,0,0,1-.21-.34c-.1-.17-.2-.34-.31-.5s-.17-.22-.25-.33c-.66-1-1.3-1.95-2-2.9s-1.24-1.89-1.88-2.82-1.53-2-2.24-3.08c-.42-.75-1.05-1.35-1.54-2.05a2.24,2.24,0,0,1-.35-1c-.38-.75-1.14-1-1.78-1.48-.43-1.16-1.44-1.88-2.11-2.86C85.95,110.66,85.39,110.39,85.62,109.75Z"/><path class="cls-4" d="M537.22,168.51c0-.79,0-1.57,0-2.36q0-13.15,0-26.31c0-.26,0-.52,0-.79a.88.88,0,0,1,.61-.83l8.74-3.54a.68.68,0,0,1,.16,0c0,.58.07,1.15.07,1.73q0,13.48,0,27a23.83,23.83,0,0,0,.52,5.32,11,11,0,0,0,1.83,4.15,8,8,0,0,0,3.16,2.53,3.6,3.6,0,0,0,1.2.35,66.65,66.65,0,0,0,6.76.42h.63c2.7-.11,3.83,1.16,4.66,3.39.75,2,.05,3.7-1.23,5.22a3,3,0,0,1-2.19,1.12,47.25,47.25,0,0,1-9.9-.21,16.69,16.69,0,0,1-10.19-6.09,25.93,25.93,0,0,1-3.86-6.29A13.43,13.43,0,0,1,537.22,168.51Z"/><path class="cls-3" d="M156.6,132.46a1.07,1.07,0,0,0-.83-.63c-1.46-.4-2.91-.82-4.37-1.22-1-.28-2-.57-3-.83a10.77,10.77,0,0,0-1.24-.17,31.84,31.84,0,0,1,6.26-7.23,38.6,38.6,0,0,1,21-9.2c1.15-.12,2.29-.25,3.45-.27a30.28,30.28,0,0,1,12.28,2.33,37,37,0,0,1,8.76,4.94,25.71,25.71,0,0,1,3.73,3.61,13.1,13.1,0,0,1,.83,1.15,3.51,3.51,0,0,1,.47,3.84,4.56,4.56,0,0,1-7.11,1.23A32.28,32.28,0,0,0,191,126a27.86,27.86,0,0,0-10.57-3.34,26.84,26.84,0,0,0-19.85,5.86A29.57,29.57,0,0,0,156.6,132.46Z"/><path class="cls-4" d="M223.17,147c0,.52.08,1,.08,1.57q0,15.93,0,31.86c0,.32,0,.63,0,.95a4.61,4.61,0,0,1-3.4,4.41,4.7,4.7,0,0,1-5.48-2.38,6.55,6.55,0,0,1-.34-1,3.43,3.43,0,0,1-.11-1.4q0-17,0-34c0-1.85.2-2,2-1.71s3.62.64,5.42,1A3.19,3.19,0,0,1,223.17,147Z"/><path class="cls-3" d="M223.17,147a10.61,10.61,0,0,1-2.63-.39c-1.91-.31-3.79-.73-5.69-1.1-.56-.11-.75,0-.78.65,0,.42,0,.84,0,1.26q0,17.16,0,34.32c0,.21,0,.42,0,.63a1.07,1.07,0,0,1-.26-.72q0-.79,0-1.58,0-16,0-32,0-15.06.05-30.11a6.72,6.72,0,0,1,.33-2.33,4.69,4.69,0,0,1,9.1,1.27c0,.31,0,.63,0,.95q0,13.88,0,27.75C223.23,146.08,223.19,146.56,223.17,147Z"/><path class="cls-3" d="M212.42,95.53a6,6,0,0,1,6.21-6.15,6.21,6.21,0,1,1-.11,12.43A6.08,6.08,0,0,1,212.42,95.53Z"/><path class="cls-6" d="M104.26,137.21a47.51,47.51,0,0,1,3,5.49c1.2,2.6,2.35,5.23,3.5,7.85.44,1,.82,2,1.23,3a.51.51,0,0,1-.12.69,56.22,56.22,0,0,0-14.11-9.6,8.78,8.78,0,0,1-.78-.49c-.16-.23-.44-.18-.65-.31h0c-.19-.7.35-1.06.75-1.42,1.81-1.65,3.61-3.29,5.36-5C102.9,137,103.52,136.38,104.26,137.21Z"/><path class="cls-7" d="M94.47,121.43a9,9,0,0,1,1.91,2.82c-1.58,1.8-3.39,3.37-5.12,5-3.28,3.14-6.87,6-9.77,9.5a23.78,23.78,0,0,1-4.1-.93c-1-.27-.76-.79-.26-1.33a41.78,41.78,0,0,1,3.42-3.41c1.07-.91,2.07-1.88,3.07-2.85a76.82,76.82,0,0,1,5.86-5.68c1-1,2-2,3.12-2.88C93.14,121.23,93.72,120.58,94.47,121.43Z"/><path class="cls-8" d="M104.26,137.21a1,1,0,0,0-1.16.12,8.37,8.37,0,0,0-1,.95c-1.46,1.62-3.19,2.95-4.76,4.45-.37.35-.68.77-1,1.16a13.39,13.39,0,0,1-2.43-1c-1.29-.52-2.56-1.06-3.85-1.59-.42-.6,0-1,.38-1.35,2.91-2.92,5.91-5.74,9-8.42.39-.33.8-.73,1.38-.35A4.86,4.86,0,0,1,102,133,23.92,23.92,0,0,1,104.26,137.21Z"/><path class="cls-9" d="M81.5,138.76a.61.61,0,0,1,.08-.84c1-1,2.06-2.08,3.11-3.1,1.87-1.81,3.92-3.44,5.68-5.37a27.84,27.84,0,0,0,4-3.72,13.79,13.79,0,0,1,2-1.49,14.56,14.56,0,0,1,2.16,3.19c-2.64,2.9-5.68,5.39-8.51,8.08-1.1,1-2.18,2.11-3.28,3.14-.45.42-.81,1-1.48,1.1A19.86,19.86,0,0,1,81.5,138.76Z"/><path class="cls-10" d="M85.26,139.76a31.67,31.67,0,0,1,4.7-4.6,7.28,7.28,0,0,0,1-1c2-2.25,4.54-4,6.6-6.27a1.26,1.26,0,0,1,1-.48h0c.18.17.12.47.34.62h0a3.84,3.84,0,0,0,.29.34,10.08,10.08,0,0,1,1.66,2.81,1.81,1.81,0,0,0-.59.18,14.31,14.31,0,0,0-1.94,1.56c-2.39,2.55-5.18,4.68-7.57,7.22-.32.34-.71.64-.7,1.17a19.85,19.85,0,0,1-3.78-1.26c-.26-.29-.69,0-1-.3Z"/><path class="cls-11" d="M583.06,108.18a7.66,7.66,0,0,1-4.11-2.45,9.87,9.87,0,0,1,4.45-16.3,8.75,8.75,0,0,1,6.28.37,1.68,1.68,0,0,1,.23,1.75c-.53.69-1.16.22-1.73.12-3.68-.67-6.72.48-8.4,3.22a7.62,7.62,0,0,0,2.77,10.64,4,4,0,0,1,1.46.91C584.26,107.33,583.8,107.83,583.06,108.18Z"/><path class="cls-12" d="M94.47,121.43c-.3-.09-.59-.24-.9,0a3.87,3.87,0,0,0-.64.45c-1.85,2-4.1,3.6-6,5.61a9.63,9.63,0,0,1-2,1.76,1.67,1.67,0,0,0-1,1.36.34.34,0,0,1-.36.08,1.37,1.37,0,0,1-.95-.67,13.63,13.63,0,0,1-2.18-1,.62.62,0,0,1,0-.86A28.57,28.57,0,0,1,86.26,123c.24,0,.5,0,.69-.23a3.42,3.42,0,0,0,.12-.36l.08-.19a21.92,21.92,0,0,1,4-3.77c.31-.27.68-.53,1.12-.18.68.86,1.36,1.7,2,2.57A2.15,2.15,0,0,1,94.47,121.43Z"/><path class="cls-13" d="M589.67,91.74q0-1,0-1.94a7.45,7.45,0,0,1,4.15,2.93,9.9,9.9,0,0,1-6.93,16,6.83,6.83,0,0,1-3.83-.56l.9-1.55c.36-.44.84-.33,1.31-.28a7.62,7.62,0,0,0,7.8-4.67,7.5,7.5,0,0,0-2.2-8.55C590.41,92.72,589.78,92.46,589.67,91.74Z"/><path class="cls-14" d="M60.35,135.9c-.89,0-1.78,0-2.67,0a135.94,135.94,0,0,0-13.69.41c-2.46.21-4.9.54-7.36.8a10.86,10.86,0,0,1-1.1,0c.21-.5.65-.59,1-.77a47.42,47.42,0,0,1,6.3-2.44,84.18,84.18,0,0,1,9.3-2.34,3.54,3.54,0,0,1,.63,0c-.63,1.41-2,2.18-3.07,3.65,2.52,0,4.83,0,7.14,0a15.83,15.83,0,0,1,2.31,0C59.63,135.27,60.22,135.2,60.35,135.9Z"/><path class="cls-15" d="M56.59,135.6l-7.36,0c-.09,0-.17-.08-.27-.12-.1-.32.16-.46.33-.64.84-.92,1.82-1.72,2.59-2.71a3.31,3.31,0,0,1,.88-.59,7.88,7.88,0,0,1,2.3-.46c2-.29,3.94-.54,5.91-.78a10.52,10.52,0,0,1,1.25,0A41,41,0,0,1,56.59,135.6Z"/><path class="cls-16" d="M56.59,135.6c1.08-1.41,2.47-2.53,3.68-3.82a5,5,0,0,1,2-1.46,26.5,26.5,0,0,1,5.69-.32c.57.78,0,1.26-.47,1.75A59.56,59.56,0,0,1,62.88,136a11.5,11.5,0,0,1-2.53-.08,1.25,1.25,0,0,0-1-.27Z"/><path class="cls-17" d="M83.65,130.57l.38,0a4.35,4.35,0,0,0-1.38,1.21,2.59,2.59,0,0,1-.67.66c-1.8,1.22-3.12,2.95-4.69,4.41-.39.37-.37.39.12,1a13.84,13.84,0,0,1-3.47-.63c-.49-.35-1.11,0-1.61-.27h0a1.37,1.37,0,0,1,.57-1.51c2-1.7,3.69-3.64,5.74-5.24a.48.48,0,0,1,.43,0l2.75.09C82.38,130.61,83.06,130.18,83.65,130.57Z"/><path class="cls-18" d="M62.88,136a4.27,4.27,0,0,1,1.64-2,25.57,25.57,0,0,0,3.12-3,1.27,1.27,0,0,0,.28-1,36.16,36.16,0,0,1,6,0c-.12,1.65-1.5,2.39-2.49,3.39-.51.51-1.12.93-1.66,1.41a1.54,1.54,0,0,0-.57,1.77,11.78,11.78,0,0,1-3.16-.32c-1-.34-2,.07-3-.25L63,136Z"/><path class="cls-19" d="M72.64,114.55a35.29,35.29,0,0,1,7.27.25c0,.9-.7,1.32-1.19,1.86a24.93,24.93,0,0,1-2.9,2.54,19.35,19.35,0,0,1-3-.64c-1.42-.28-2.82-.62-4.24-.93a3.31,3.31,0,0,1,2.7-3A4.25,4.25,0,0,0,72.64,114.55Z"/><path class="cls-20" d="M85.62,109.75l2.48,3a5.79,5.79,0,0,1,.5.6c.19.3,0,.47-.26.61-2.2-.77-4.39-1.58-6.66-2.16A13.41,13.41,0,0,1,79,111c-.32-.26-.93-.23-.78-.93.24-1.13,2.48-2.72,3.72-2.6l1.45,0A14.9,14.9,0,0,1,85.62,109.75Z"/><path class="cls-21" d="M75.83,119.21a3.78,3.78,0,0,1,1.36-1.65,14.38,14.38,0,0,0,1.92-1.82c.29-.29.54-.62.81-.93a26.32,26.32,0,0,1,6.05.61c-.82,1.53-2.39,2.32-3.52,3.54a2.83,2.83,0,0,0-1,1.88,27.72,27.72,0,0,1-4.41-1.3c-.29-.27-.72-.06-1-.28l-.13,0Z"/><path class="cls-22" d="M69.19,136.56a4.12,4.12,0,0,0-.52-.31c-.3-.13-.43-.36-.22-.59a13.63,13.63,0,0,1,2-2,13.22,13.22,0,0,0,3.49-3.7,1.7,1.7,0,0,1,1,0c1.24.38,2.56-.21,3.78.34a36.36,36.36,0,0,1-4.51,4.32A5.52,5.52,0,0,0,72.29,137l-.58-.07c-.62-.35-1.34.05-2-.27Z"/><path class="cls-23" d="M81.93,107.51a1.85,1.85,0,0,0-1.73.82,13.49,13.49,0,0,1-1.52,1.58c-.15.15-.29.34-.2.55s.21.22.32.34.13.16.2.24a6.88,6.88,0,0,1-2-.31,70.31,70.31,0,0,0-7.15-1c-.31-.26-.7-.09-1-.19a.53.53,0,0,1-.39-.59.94.94,0,0,1,.71-.91c.44-.12.94.13,1.34-.2a4.26,4.26,0,0,1,.75-.19,82,82,0,0,1,9.67-.35A2,2,0,0,1,81.93,107.51Z"/><path class="cls-19" d="M69.19,125.86l-6-.65c-.42-.28-.88-.09-1.32-.15a1,1,0,0,1-.67-.14c0-1.72,1.25-2.37,2.62-2.88a1.92,1.92,0,0,1,.44-.14,63.53,63.53,0,0,1,8.07-.11,7.13,7.13,0,0,1-2.23,2.42A1.84,1.84,0,0,0,69.19,125.86Z"/><path class="cls-24" d="M72.64,114.55a.65.65,0,0,1-.55.25,2.29,2.29,0,0,0-2.16,1c-.31.36-.66.68-1,1a1.13,1.13,0,0,0-.37.83,16,16,0,0,1-3.25-.39,60.4,60.4,0,0,0-10.3-.5c-.44.06-1,.42-1.21-.29,2.27-.39,4.52-.85,6.8-1.14A68.31,68.31,0,0,1,72.64,114.55Z"/><path class="cls-25" d="M69.19,125.86c-.45-.56-.46-.77-.2-1.17.41-.63,1.15-.85,1.66-1.38s.79-1.23,1.57-1.41c0,0,.07-.07.1-.11a3,3,0,0,1,1.3,0c1.17.29,2.38-.09,3.56.21a.51.51,0,0,1,.52,0c.28.81-.31,1.26-.74,1.74a35.39,35.39,0,0,1-3.37,3A34.24,34.24,0,0,1,69.19,125.86Z"/><path class="cls-18" d="M81.49,120.83c-.06-.08-.11-.17-.18-.25-.41-.49-.44-.55-.11-.87a33.16,33.16,0,0,1,2.68-2.56,6,6,0,0,0,1.54-1.5c.08-.14.36-.16.55-.24a24.25,24.25,0,0,1,3.39.38.52.52,0,0,1,.19.38c-.77,1.65-2.3,2.6-3.49,3.87-.56.6-1.18,1.14-1.74,1.75A10.39,10.39,0,0,1,81.49,120.83Z"/><path class="cls-26" d="M86.59,123.3a1.24,1.24,0,0,0-1.08.48,10.71,10.71,0,0,1-2,1.92,30.18,30.18,0,0,0-2.77,2.73c-.13.13-.12.39-.18.58a13.08,13.08,0,0,1-2.84-1c-.85-.49-.47-1.07,0-1.54,1.21-1.29,2.67-2.33,3.85-3.66.46-.52,1.26-.35,1.93-.16l1.79.09c.41.13.88-.2,1.27.15a.33.33,0,0,1,.1.26Q86.62,123.3,86.59,123.3Z"/><path class="cls-27" d="M83.46,122.67c-.31,0-.62,0-.93,0a1.17,1.17,0,0,0-1,.58,9.24,9.24,0,0,1-2.41,2.37,14.08,14.08,0,0,0-1.36,1.26c-.41.37-.27.73,0,1.11a17.59,17.59,0,0,1-3.16-.95c-.27-.23-.67,0-.94-.27h0c.07-.77.67-1.14,1.2-1.55a8.71,8.71,0,0,0,2.91-3.2A23.74,23.74,0,0,1,83.46,122.67Z"/><path class="cls-22" d="M84.33,121.79a1.49,1.49,0,0,1,.62-1.31A27.67,27.67,0,0,0,89.42,116a1.57,1.57,0,0,1,1.21,0c.47.8,1.31,1.33,1.61,2.26-.15,0-.35,0-.45.1-1.57,1.4-3.36,2.58-4.61,4.33a.7.7,0,0,1-.39.2,2,2,0,0,1-1.2-.51Z"/><path class="cls-28" d="M63.82,122a12.55,12.55,0,0,0-2.35,2.29c-.12.13-.12.38-.17.57a70.61,70.61,0,0,1-7.61.15c-.32,0-.65,0-.72-.43-.14-.82.52-1,1.05-1.33h0c.49-.32,1.11.09,1.59-.29a7.05,7.05,0,0,1,2.45-.46A30.53,30.53,0,0,1,63.82,122Z"/><path class="cls-29" d="M54,123.3a.84.84,0,0,1-.08.13c-.32.37-.94.69-.62,1.25s.85.21,1.3.21c2.23,0,4.45,0,6.68,0h.63q.15.09.1.18c0,.06-.07.09-.1.09-1.47,0-2.94,0-4.4,0-3.47-.06-6.92.27-10.37.4-.46,0-1,.46-1.3-.33a58.09,58.09,0,0,1,7.24-1.9A6.54,6.54,0,0,1,54,123.3Z"/><path class="cls-30" d="M70.45,107.85c-.23.37-.61.32-1,.34a.8.8,0,0,0-.63.37c-.32.44-.24.71.3.86a1.05,1.05,0,0,1,.66.33c-3,.06-6.05,0-9.07-.2a2.48,2.48,0,0,1-.47-.12c.31-.48.8-.32,1.18-.38,2.42-.4,4.84-.77,7.27-1.12A15.73,15.73,0,0,1,70.45,107.85Z"/><path class="cls-18" d="M78.67,130.35l-2.77-.07c-.36,0-.73,0-1-.27a14.42,14.42,0,0,1,4.15.23Z"/><path class="cls-31" d="M45.85,125.26c.35.43.89.13,1.3.33a6.7,6.7,0,0,1-2.81.28A2.37,2.37,0,0,1,45.85,125.26Z"/><path class="cls-32" d="M35.46,56.06c-.24.08-.52.06-.66.33a5,5,0,0,1-1.59-.63q-.14-.12-.09-.23t.09-.12A5.86,5.86,0,0,1,35.46,56.06Z"/><path class="cls-33" d="M53.8,116.46c.35.32.83.1,1.21.29-.82.47-1.7.19-2.57.21A1.62,1.62,0,0,1,53.8,116.46Z"/><path class="cls-34" d="M30.4,66.49c-.25.08-.55,0-.68.35a4.47,4.47,0,0,1-1.57-.65.22.22,0,0,1-.08-.24q0-.12.09-.12A5.79,5.79,0,0,1,30.4,66.49Z"/><path class="cls-19" d="M77.19,122l-2.68,0a1.06,1.06,0,0,1-.88-.26A10.74,10.74,0,0,1,77.19,122Z"/><path class="cls-35" d="M47.14,46.59l-.38.37a5.46,5.46,0,0,1-1.53-.67c-.08-.29,0-.43.32-.34A4.45,4.45,0,0,1,47.14,46.59Z"/><path class="cls-16" d="M63.06,136l2.13,0a1,1,0,0,1,.83.28A8.17,8.17,0,0,1,63.06,136Z"/><path class="cls-36" d="M45.55,45.94l-.32.34A1.91,1.91,0,0,1,44,45.49,2.32,2.32,0,0,1,45.55,45.94Z"/><path class="cls-37" d="M83.65,130.57a2.89,2.89,0,0,1-1.86-.24c.29-.17.72,0,.94-.33A1.18,1.18,0,0,1,83.65,130.57Z"/><path class="cls-38" d="M85.59,122.39c.47-.08.8.33,1.24.35.1.29,0,.41-.3.33s-.9,0-1.27-.31Z"/><path class="cls-18" d="M69.75,136.61l1.32,0a.8.8,0,0,1,.64.29A3.81,3.81,0,0,1,69.75,136.61Z"/><path class="cls-39" d="M87.46,96.23c-.23-.19-.51-.34-.62-.65l.38-.38c.31.12.42.43.6.67S87.76,96.29,87.46,96.23Z"/><path class="cls-40" d="M103.33,77.84a2,2,0,0,1,.73,1,.4.4,0,0,1-.51,0,1.38,1.38,0,0,1-.57-.69Z"/><path class="cls-41" d="M54.4,38.69l-.33.32a1.72,1.72,0,0,1-1-.4C53.68,38.39,53.68,38.38,54.4,38.69Z"/><path class="cls-22" d="M72.31,136.94c.55,0,1.14-.23,1.61.27A2.45,2.45,0,0,1,72.31,136.94Z"/><path class="cls-29" d="M55.61,123c-.45.52-1.05.26-1.59.29A2.45,2.45,0,0,1,55.61,123Z"/><path class="cls-42" d="M90.63,116l-1.21,0-.06-.2c.26-.11.61,0,.75-.37C90.41,115.51,90.49,115.79,90.63,116Z"/><path class="cls-43" d="M33.21,55.42v.35c-.1,0-.23,0-.28-.09s-.61-.12-.36-.45S33,55.18,33.21,55.42Z"/><path class="cls-28" d="M61.93,125.18q0-.13,0-.27c.44,0,.92-.14,1.26.3A2.93,2.93,0,0,1,61.93,125.18Z"/><path class="cls-44" d="M28.16,65.83v.36a1.74,1.74,0,0,1-.38-.17c-.1-.08-.24-.2-.08-.34a.3.3,0,0,1,.25,0A.82.82,0,0,1,28.16,65.83Z"/><path class="cls-25" d="M73.61,126.81c.34,0,.69-.06.94.27A1.09,1.09,0,0,1,73.61,126.81Z"/><path class="cls-19" d="M76.06,119.25c.37,0,.76-.09,1,.28A1.22,1.22,0,0,1,76.06,119.25Z"/><path class="cls-45" d="M95.72,87.32l-.42-.55.47-.07.32.3C96.14,87.3,96,87.4,95.72,87.32Z"/><path class="cls-9" d="M85.28,139.76c.36,0,.72-.07,1,.3A1.08,1.08,0,0,1,85.28,139.76Z"/><path class="cls-35" d="M48.08,46.92a.58.58,0,0,1-.67-.26A.65.65,0,0,1,48.08,46.92Z"/><path class="cls-8" d="M96.3,143.88a.54.54,0,0,1,.65.31A.65.65,0,0,1,96.3,143.88Z"/><path class="cls-45" d="M94.76,86.3a.23.23,0,0,1-.25-.23Z"/><path class="cls-45" d="M95.38,86.1a.28.28,0,0,1,.23.31A.31.31,0,0,1,95.38,86.1Z"/><path class="cls-35" d="M46.77,47a.29.29,0,0,1,.34.21A.28.28,0,0,1,46.77,47Z"/><path class="cls-45" d="M95.1,85.72a.37.37,0,0,1,.27.37A.39.39,0,0,1,95.1,85.72Z"/><path class="cls-46" d="M150,84.62a2.93,2.93,0,0,1-5.86,0,2.92,2.92,0,0,1,3-2.95A2.88,2.88,0,0,1,150,84.62Z"/><path class="cls-47" d="M95.72,87.32,96.1,87a1.09,1.09,0,0,1,.56,1l0,0A1,1,0,0,1,95.72,87.32Z"/><path class="cls-48" d="M103.56,78.86l.51,0a.79.79,0,0,1,.38.59s-.14.16-.16.15A1.6,1.6,0,0,1,103.56,78.86Z"/><path class="cls-49" d="M87.46,96.23a.51.51,0,0,0,.36-.36,1.14,1.14,0,0,1,.44.61c0,.12,0,.2-.09.25a.22.22,0,0,1-.15,0A1,1,0,0,1,87.46,96.23Z"/><path class="cls-47" d="M96.66,88l.12.14L96.64,88Z"/><path class="cls-1" d="M402.08,144.35a15.78,15.78,0,0,1,1.2-4.52,26.73,26.73,0,0,1,15.55-15.6A26.27,26.27,0,0,1,442,126.06a27,27,0,0,1,13,17.42,4.59,4.59,0,0,1,.1.46c0,.3-.07.52-.39.54s-.84,0-1.26,0H403.67A3.22,3.22,0,0,1,402.08,144.35Z"/><path class="cls-1" d="M244,150.79c0-.95,0-1.89,0-2.84a22.83,22.83,0,0,1,2.92-11.77,33.06,33.06,0,0,1,5.91-7.93,22.71,22.71,0,0,1,12.32-6.21,29.14,29.14,0,0,1,12.79.62,24.15,24.15,0,0,1,9,4.71,29.12,29.12,0,0,1,6.95,8.08,22.53,22.53,0,0,1,2.88,9.24c.07.84.19,1.67.21,2.51a30.26,30.26,0,0,1-1.44,9.92,30.58,30.58,0,0,1-9,12.29,22.6,22.6,0,0,1-13.61,5.08c-1.41.06-2.83.06-4.25,0a22.5,22.5,0,0,1-11.6-3.51,29.9,29.9,0,0,1-8.48-7.66,23,23,0,0,1-4.27-10.54C244.23,152.14,244.13,151.47,244,150.79Z"/><path class="cls-1" d="M373.46,161.2a50.43,50.43,0,0,1-3.53,4.83,24.08,24.08,0,0,1-10.66,7.29,22,22,0,0,1-6.48,1.19c-1.42,0-2.84.05-4.25,0A22.51,22.51,0,0,1,336.92,171a30.4,30.4,0,0,1-8.49-7.66,40.86,40.86,0,0,1-2.3-3.76,29.84,29.84,0,0,1-1.71-5.23,22.21,22.21,0,0,1-.53-4.21,40.12,40.12,0,0,1,.23-6.14,23.36,23.36,0,0,1,2.61-7.72,32.66,32.66,0,0,1,6.11-8.18,22.66,22.66,0,0,1,12.08-6.06,29.12,29.12,0,0,1,12.81.58,24.12,24.12,0,0,1,9,4.68,29.3,29.3,0,0,1,6.9,7.94,24.35,24.35,0,0,1,3,9.53,29.56,29.56,0,0,1-.13,7.39,20.66,20.66,0,0,1-2.59,8C373.79,160.54,373.63,160.87,373.46,161.2Z"/><path class="cls-9" d="M98.88,128.06a.61.61,0,0,1-.34-.62A.68.68,0,0,1,98.88,128.06Z"/><path class="cls-9" d="M99.16,128.38l-.29-.34Z"/><path class="cls-1" d="M589.67,91.74l.78.52a7.94,7.94,0,0,1-4.15,14.57,16.37,16.37,0,0,1-2.34-.2c-.48-.22-1-.43-1.43-.65a7.86,7.86,0,0,1-4-9.16,7.77,7.77,0,0,1,8.3-5.79A14.52,14.52,0,0,1,589.67,91.74Z"/><path class="cls-50" d="M86.52,123.07l.3-.33.35,0h0a3,3,0,0,0,.32.29c-.19.45-.58.29-.91.31Q86.56,123.18,86.52,123.07Z"/><path class="cls-22" d="M87.5,123l-.32-.29Z"/><path class="cls-2" d="M587.81,99.4l0,.51c-.15.65-.27,1.31-1,1.64-.23-.28-.45-.57-.69-.85a2.09,2.09,0,0,0-1.65-.78c-.5,0-.7.13-.71.61,0,.89,0,1.79,0,2.68s-.07.94-1,.94h-.16c-.83,0-.9-.06-.9-.91,0-2.84,0-5.68,0-8.52,0-.16,0-.32,0-.47a.55.55,0,0,1,.62-.55h3.79a6.87,6.87,0,0,1,2.18.26,1.45,1.45,0,0,1,.78.5A6.51,6.51,0,0,1,587.81,99.4Z"/><path class="cls-51" d="M586.83,101.55a4,4,0,0,0,.28-.7,1.32,1.32,0,0,1,.69-.94,1.13,1.13,0,0,1,.61.45,29.28,29.28,0,0,1,2.24,3.65,6.42,6.42,0,0,1-2.25.11c-.28,0-.45-.25-.56-.49C587.49,102.95,587.16,102.25,586.83,101.55Z"/><path class="cls-52" d="M587.81,99.4q.56-2.17,1.12-4.33c.05-.2.08-.41.12-.61a2.58,2.58,0,0,1,.93,3A2.43,2.43,0,0,1,587.81,99.4Z"/><path class="cls-53" d="M585.2,95.33c.5.06,1.08.1,1.64.21a1.19,1.19,0,0,1,1,1.24,1.27,1.27,0,0,1-1,1.29,5.75,5.75,0,0,1-.93.12c-2.61.23-2.16.09-2.18-2.08,0-.6.17-.75.74-.77Z"/></g></svg>