<?xml version="1.0" encoding="utf-8"?>
<!-- Generator: Adobe Illustrator 16.0.0, SVG Export Plug-In . SVG Version: 6.00 Build 0)  -->
<!DOCTYPE svg PUBLIC "-//W3C//DTD SVG 1.1//EN" "http://www.w3.org/Graphics/SVG/1.1/DTD/svg11.dtd">
<svg version="1.1" id="Layer_1" xmlns="http://www.w3.org/2000/svg" xmlns:xlink="http://www.w3.org/1999/xlink" x="0px" y="0px"
	 width="321.5px" height="108.847px" viewBox="0 0 321.5 108.847" enable-background="new 0 0 321.5 108.847" xml:space="preserve">
<g>
	<g>
		<rect x="214.152" y="47.307" width="57.832" height="0.863"/>
	</g>
	<path fill="#EE3124" d="M112.288,67.883c-1.232,0.816-2.48,1.428-3.748,1.834c-1.268,0.41-2.579,0.613-3.938,0.613
		c-1.335,0-2.58-0.232-3.738-0.693c-1.157-0.463-2.197-1.143-3.117-2.045c-0.933-0.912-1.644-1.951-2.132-3.115
		c-0.49-1.164-0.735-2.402-0.735-3.713c0-1.334,0.238-2.574,0.717-3.721c0.478-1.148,1.194-2.184,2.15-3.109
		c0.92-0.922,1.945-1.611,3.072-2.061c1.128-0.451,2.389-0.676,3.783-0.676c1.888,0,3.58,0.471,5.077,1.41
		c1.496,0.939,2.728,2.311,3.696,4.107l-12.532,7.92c0.538,0.512,1.142,0.896,1.81,1.152c0.666,0.256,1.395,0.383,2.189,0.383
		c0.803,0,1.66-0.168,2.568-0.506c0.906-0.338,1.93-0.871,3.068-1.605L112.288,67.883z M99.359,61.424l8.152-5.096
		c-0.355-0.408-0.784-0.717-1.283-0.92c-0.5-0.205-1.061-0.309-1.681-0.309c-1.494,0-2.739,0.521-3.733,1.564
		c-0.993,1.041-1.489,2.359-1.489,3.951c0,0.225,0.002,0.391,0.008,0.502C99.34,61.229,99.348,61.33,99.359,61.424z"/>
	<path d="M114.535,45.115l4.798-0.318v20.479h8.896l-1.151,4.672h-12.542V45.115z"/>
	<path d="M145.465,67.883c-1.231,0.816-2.481,1.428-3.747,1.834c-1.267,0.41-2.58,0.613-3.938,0.613
		c-1.336,0-2.581-0.232-3.738-0.693c-1.157-0.463-2.196-1.143-3.118-2.045c-0.933-0.912-1.643-1.951-2.132-3.115
		c-0.491-1.164-0.734-2.402-0.734-3.713c0-1.334,0.237-2.574,0.717-3.721c0.477-1.148,1.195-2.184,2.149-3.109
		c0.92-0.922,1.946-1.611,3.075-2.061c1.126-0.451,2.387-0.676,3.781-0.676c1.888,0,3.579,0.471,5.075,1.41
		c1.497,0.939,2.729,2.311,3.696,4.107l-12.531,7.92c0.539,0.512,1.142,0.896,1.81,1.152c0.667,0.256,1.395,0.383,2.19,0.383
		c0.803,0,1.659-0.168,2.567-0.506c0.907-0.338,1.931-0.871,3.067-1.605L145.465,67.883z M132.536,61.424l8.153-5.096
		c-0.355-0.408-0.784-0.717-1.284-0.92c-0.5-0.205-1.06-0.309-1.681-0.309c-1.494,0-2.738,0.521-3.732,1.564
		c-0.993,1.041-1.49,2.359-1.49,3.951c0,0.225,0.002,0.391,0.008,0.502S132.525,61.33,132.536,61.424z"/>
	<path d="M157.694,70.33v-1.871c-0.577,0.631-1.258,1.102-2.042,1.408c-0.783,0.309-1.672,0.463-2.664,0.463
		c-1.916,0-3.488-0.607-4.715-1.822c-1.229-1.215-1.842-2.762-1.842-4.643c0-1.889,0.613-3.408,1.836-4.553
		c1.226-1.145,2.849-1.719,4.87-1.719c0.856,0,1.643,0.111,2.358,0.334c0.716,0.221,1.362,0.547,1.942,0.977v-1.537
		c0-0.762-0.299-1.33-0.893-1.705c-0.595-0.375-1.503-0.563-2.727-0.563c-1.004,0-1.946,0.086-2.822,0.256
		c-0.88,0.172-1.674,0.428-2.391,0.77l1.007-4.377c0.992-0.209,1.91-0.365,2.759-0.467c0.846-0.1,1.626-0.148,2.342-0.148
		c2.396,0,4.153,0.484,5.271,1.453c1.118,0.971,1.677,2.492,1.677,4.572v12.789L157.694,70.33z M150.911,63.713
		c0,0.852,0.289,1.516,0.869,1.996c0.579,0.479,1.387,0.717,2.419,0.717c1.012,0,1.804-0.232,2.377-0.701
		c0.575-0.465,0.862-1.113,0.862-1.941c0-0.852-0.285-1.52-0.854-2.004c-0.567-0.484-1.35-0.729-2.348-0.729
		c-1.046,0-1.861,0.236-2.447,0.711C151.204,62.234,150.911,62.885,150.911,63.713z"/>
	<path d="M164.237,70.201V51.643l4.159-0.318v3.178c0.621-1.18,1.457-2.047,2.511-2.602c1.052-0.555,2.384-0.832,3.993-0.832h0.535
		l-1.59,4.414c-1.753,0-3.037,0.5-3.847,1.494c-0.812,0.996-1.218,2.561-1.218,4.693v8.277L164.237,70.201z"/>
	<path d="M176.19,70.201V51.643l4.159-0.318v2.668c0.687-0.965,1.454-1.684,2.303-2.154c0.848-0.469,1.794-0.705,2.838-0.705
		c1.763,0,3.119,0.586,4.064,1.758c0.946,1.174,1.418,2.855,1.418,5.049v12.008l-4.543,0.254V59.313
		c0-1.527-0.188-2.588-0.559-3.186c-0.37-0.6-1.002-0.9-1.892-0.9c-1.087,0-1.91,0.377-2.47,1.129
		c-0.559,0.75-0.84,1.854-0.84,3.309v10.283L176.19,70.201z"/>
	<path fill="#EE3124" d="M192.483,66.602l3.317-3.504c0.791,0.984,1.535,1.688,2.229,2.113c0.695,0.428,1.439,0.639,2.232,0.639
		c0.952,0,1.706-0.268,2.263-0.805c0.559-0.537,0.837-1.273,0.837-2.205c0-1.238-1.205-2.32-3.614-3.24
		c-0.301-0.119-0.53-0.207-0.689-0.268c-2.253-0.879-3.85-1.867-4.787-2.963c-0.937-1.1-1.404-2.504-1.404-4.219
		c0-2.193,0.747-4.021,2.245-5.482c1.497-1.461,3.383-2.191,5.653-2.191c1.538,0,2.911,0.287,4.124,0.863
		c1.208,0.576,2.277,1.459,3.208,2.645l-3.156,3.34c-0.68-0.764-1.348-1.326-2.013-1.693c-0.665-0.363-1.36-0.545-2.08-0.545
		c-0.873,0-1.578,0.252-2.119,0.758c-0.537,0.506-0.808,1.172-0.808,1.996c0,1.154,1.137,2.139,3.408,2.949
		c0.803,0.283,1.434,0.52,1.895,0.707c1.745,0.695,3.059,1.654,3.938,2.883c0.88,1.229,1.32,2.725,1.32,4.486
		c0,2.256-0.755,4.107-2.264,5.553c-1.508,1.445-3.455,2.168-5.84,2.168c-1.676,0-3.162-0.326-4.464-0.979
		C194.611,68.955,193.469,67.953,192.483,66.602z"/>
	<path fill="#EE3124" d="M226.777,67.883c-1.233,0.816-2.483,1.428-3.749,1.834c-1.266,0.41-2.578,0.613-3.938,0.613
		c-1.335,0-2.582-0.232-3.737-0.693c-1.158-0.463-2.198-1.143-3.117-2.045c-0.934-0.912-1.644-1.951-2.133-3.115
		c-0.491-1.164-0.734-2.402-0.734-3.713c0-1.334,0.237-2.574,0.716-3.721c0.478-1.148,1.195-2.184,2.151-3.109
		c0.918-0.922,1.944-1.611,3.072-2.061c1.126-0.451,2.388-0.676,3.782-0.676c1.887,0,3.579,0.471,5.076,1.41
		c1.496,0.939,2.727,2.311,3.696,4.107l-12.532,7.92c0.54,0.512,1.144,0.896,1.81,1.152s1.396,0.383,2.189,0.383
		c0.804,0,1.66-0.168,2.567-0.506c0.909-0.338,1.931-0.871,3.069-1.605L226.777,67.883z M213.849,61.424l8.153-5.096
		c-0.355-0.408-0.785-0.717-1.285-0.92c-0.5-0.205-1.061-0.309-1.681-0.309c-1.493,0-2.738,0.521-3.732,1.564
		c-0.993,1.041-1.491,2.359-1.491,3.951c0,0.225,0.004,0.391,0.011,0.502C213.828,61.229,213.836,61.33,213.849,61.424z"/>
	<path fill="#EE3124" d="M243.869,67.994c-0.989,0.791-2.028,1.379-3.115,1.762c-1.09,0.383-2.242,0.574-3.463,0.574
		c-2.74,0-5.017-0.916-6.829-2.746c-1.813-1.832-2.72-4.105-2.72-6.82c0-1.311,0.247-2.561,0.742-3.748
		c0.496-1.189,1.203-2.227,2.124-3.117c0.874-0.877,1.883-1.547,3.022-2.008c1.14-0.463,2.359-0.693,3.66-0.693
		c1.23,0,2.392,0.178,3.479,0.535c1.088,0.359,2.121,0.902,3.1,1.629l-2.433,3.529c-0.701-0.514-1.366-0.887-1.991-1.121
		c-0.627-0.232-1.285-0.35-1.974-0.35c-1.541,0-2.778,0.49-3.716,1.469c-0.938,0.979-1.406,2.268-1.406,3.863
		c0,1.514,0.488,2.766,1.467,3.75c0.977,0.984,2.205,1.477,3.688,1.477c0.61,0,1.226-0.115,1.847-0.35
		c0.619-0.234,1.327-0.607,2.12-1.121L243.869,67.994z"/>
	<path fill="#EE3124" d="M259.674,51.324v18.623l-4.158,0.447v-2.861c-0.691,0.953-1.467,1.668-2.324,2.145
		c-0.858,0.477-1.804,0.717-2.84,0.717c-1.783,0-3.15-0.584-4.102-1.752c-0.949-1.168-1.423-2.846-1.423-5.029V51.643l4.543-0.318
		v10.92c0,1.521,0.189,2.576,0.565,3.17c0.377,0.588,1.012,0.885,1.903,0.885c1.073,0,1.892-0.377,2.452-1.133
		c0.559-0.752,0.838-1.863,0.838-3.324V51.643L259.674,51.324z"/>
	<path fill="#EE3124" d="M262.336,70.201V51.643l4.16-0.318v3.178c0.621-1.18,1.459-2.047,2.51-2.602
		c1.052-0.555,2.383-0.832,3.992-0.832h0.538l-1.591,4.414c-1.752,0-3.035,0.5-3.849,1.494c-0.813,0.996-1.216,2.561-1.216,4.693
		v8.277L262.336,70.201z"/>
	<polyline fill="#EE3124" points="275.948,42.906 279,46.588 275.948,49.725 272.922,46.588 275.948,42.906 	"/>
	<polygon fill="#EE3124" points="273.625,70.201 273.625,51.643 278.168,51.324 278.168,69.947 	"/>
	<path fill="#EE3124" d="M290.273,70.328c-0.078,0-0.194,0.004-0.344,0.016c-0.598,0.033-0.999,0.051-1.205,0.051
		c-2.375,0-4.11-0.625-5.205-1.873c-1.096-1.246-1.644-3.232-1.644-5.951v-6.959h-2.88l1.088-3.969h1.792v-3.002l4.479-2.244v5.246
		h4.16v3.969h-4.16v6.994c0,1.414,0.236,2.373,0.71,2.875s1.333,0.754,2.58,0.754c0.38,0,0.705-0.004,0.979-0.01
		c0.271-0.006,0.533-0.012,0.787-0.025L290.273,70.328z"/>
	<path fill="#EE3124" d="M297.848,76.537l-4.739-0.686l3.858-8.545l-7.95-15.227l4.733-0.756l4.81,9.443
		c0.161,0.305,0.392,0.984,0.692,2.039l0.051,0.176c0.126-0.479,0.25-0.92,0.37-1.318c0.123-0.398,0.235-0.732,0.339-1.004
		l4.152-9.336l4.498,0.756L297.848,76.537z"/>
	<g>
		<path d="M114.986,73.021h5.132v1.033h-3.889v3.166h3.593v1.02h-3.593v4.313h-1.243V73.021z"/>
		<path d="M124.205,82.709c-1.837,0-3.28-1.359-3.28-3.521c0-2.291,1.514-3.635,3.395-3.635c1.965,0,3.295,1.428,3.295,3.508
			c0,2.545-1.768,3.648-3.394,3.648H124.205z M124.247,81.775c1.188,0,2.081-1.119,2.081-2.674c0-1.158-0.582-2.615-2.052-2.615
			c-1.457,0-2.093,1.359-2.093,2.658c0,1.5,0.85,2.631,2.05,2.631H124.247z"/>
		<path d="M129.197,77.846c0-0.809-0.016-1.5-0.057-2.137h1.089l0.057,1.344h0.043c0.31-0.92,1.073-1.5,1.909-1.5
			c0.127,0,0.224,0.014,0.337,0.043v1.16c-0.14-0.016-0.268-0.029-0.438-0.029c-0.875,0-1.499,0.664-1.668,1.584
			c-0.028,0.184-0.042,0.383-0.042,0.594v3.648h-1.246L129.197,77.846z"/>
		<path d="M139.549,81.549c0,1.584-0.327,2.531-0.978,3.139c-0.677,0.609-1.64,0.822-2.503,0.822c-0.82,0-1.725-0.199-2.275-0.566
			l0.311-0.963c0.453,0.297,1.16,0.553,2.008,0.553c1.273,0,2.207-0.664,2.207-2.404v-0.75h-0.029
			c-0.366,0.637-1.117,1.146-2.178,1.146c-1.697,0-2.912-1.443-2.912-3.352c0-2.318,1.514-3.621,3.096-3.621
			c1.189,0,1.824,0.609,2.137,1.174h0.027l0.043-1.018h1.103c-0.043,0.48-0.056,1.031-0.056,1.867V81.549z M138.304,78.395
			c0-0.197-0.015-0.381-0.071-0.549c-0.227-0.738-0.819-1.33-1.738-1.33c-1.188,0-2.037,1.002-2.037,2.602
			c0,1.328,0.694,2.459,2.023,2.459c0.775,0,1.47-0.48,1.725-1.287c0.07-0.197,0.099-0.438,0.099-0.662V78.395z"/>
		<path d="M142.192,74.451c-0.468,0-0.778-0.367-0.778-0.807s0.326-0.793,0.807-0.793s0.792,0.354,0.792,0.793
			s-0.312,0.807-0.808,0.807H142.192z M141.598,82.553v-6.844h1.246v6.844H141.598z"/>
		<path d="M144.907,77.563c0-0.721-0.014-1.287-0.057-1.854h1.104l0.069,1.117h0.029c0.338-0.637,1.131-1.273,2.263-1.273
			c0.946,0,2.418,0.564,2.418,2.914v4.086h-1.245v-3.945c0-1.104-0.41-2.035-1.584-2.035c-0.806,0-1.442,0.578-1.668,1.273
			c-0.058,0.154-0.084,0.381-0.084,0.578v4.129h-1.245V77.563z"/>
		<path d="M158.607,81.549c0,1.584-0.324,2.531-0.975,3.139c-0.679,0.609-1.641,0.822-2.502,0.822c-0.821,0-1.726-0.199-2.278-0.566
			l0.312-0.963c0.453,0.297,1.161,0.553,2.009,0.553c1.271,0,2.205-0.664,2.205-2.404v-0.75h-0.027
			c-0.367,0.637-1.118,1.146-2.178,1.146c-1.697,0-2.913-1.443-2.913-3.352c0-2.318,1.512-3.621,3.097-3.621
			c1.188,0,1.823,0.609,2.135,1.174h0.028l0.043-1.018h1.104c-0.043,0.48-0.059,1.031-0.059,1.867V81.549z M157.364,78.395
			c0-0.197-0.014-0.381-0.07-0.549c-0.227-0.738-0.821-1.33-1.739-1.33c-1.188,0-2.036,1.002-2.036,2.602
			c0,1.328,0.692,2.459,2.022,2.459c0.776,0,1.47-0.48,1.724-1.287c0.07-0.197,0.1-0.438,0.1-0.662V78.395z"/>
		<path d="M163.486,81.295c0.383,0.225,1.033,0.48,1.655,0.48c0.89,0,1.315-0.438,1.315-1.018c0-0.596-0.354-0.92-1.26-1.258
			c-1.244-0.455-1.824-1.117-1.824-1.938c0-1.104,0.905-2.01,2.361-2.01c0.693,0,1.302,0.186,1.67,0.424l-0.297,0.893
			c-0.269-0.156-0.765-0.396-1.4-0.396c-0.735,0-1.132,0.424-1.132,0.934c0,0.578,0.396,0.834,1.287,1.174
			c1.174,0.438,1.797,1.031,1.797,2.064c0,1.215-0.947,2.064-2.547,2.064c-0.748,0-1.442-0.197-1.923-0.48L163.486,81.295z"/>
		<path d="M169.963,79.344c0.028,1.684,1.09,2.375,2.334,2.375c0.892,0,1.441-0.156,1.894-0.34l0.227,0.877
			c-0.437,0.197-1.201,0.438-2.289,0.438c-2.095,0-3.366-1.398-3.366-3.449c0-2.078,1.229-3.705,3.223-3.705
			c2.235,0,2.815,1.965,2.815,3.223c0,0.256-0.015,0.455-0.043,0.596L169.963,79.344z M173.598,78.453
			c0.014-0.779-0.327-2.023-1.713-2.023c-1.271,0-1.809,1.16-1.907,2.023H173.598z"/>
		<path d="M181.219,82.313c-0.325,0.154-1.045,0.396-1.965,0.396c-2.064,0-3.408-1.4-3.408-3.508s1.441-3.648,3.676-3.648
			c0.735,0,1.387,0.186,1.727,0.367l-0.282,0.949c-0.298-0.156-0.766-0.326-1.444-0.326c-1.569,0-2.417,1.174-2.417,2.602
			c0,1.584,1.017,2.559,2.375,2.559c0.707,0,1.174-0.168,1.526-0.324L181.219,82.313z"/>
		<path d="M188.401,80.686c0,0.707,0.016,1.33,0.058,1.867h-1.104l-0.07-1.117h-0.028c-0.312,0.551-1.046,1.273-2.263,1.273
			c-1.075,0-2.361-0.607-2.361-2.998v-4.002h1.245v3.775c0,1.301,0.409,2.191,1.526,2.191c0.834,0,1.414-0.58,1.641-1.145
			c0.069-0.17,0.112-0.396,0.112-0.639v-4.184h1.244V80.686z"/>
		<path d="M190.48,77.846c0-0.809-0.014-1.5-0.057-2.137h1.088l0.058,1.344h0.043c0.311-0.92,1.074-1.5,1.909-1.5
			c0.128,0,0.225,0.014,0.338,0.043v1.16c-0.141-0.016-0.269-0.029-0.438-0.029c-0.877,0-1.499,0.664-1.668,1.584
			c-0.029,0.184-0.044,0.383-0.044,0.594v3.648h-1.243L190.48,77.846z"/>
		<path d="M195.741,74.451c-0.468,0-0.778-0.367-0.778-0.807s0.326-0.793,0.807-0.793s0.791,0.354,0.791,0.793
			s-0.311,0.807-0.807,0.807H195.741z M195.147,82.553v-6.844h1.244v6.844H195.147z"/>
		<path d="M199.954,74.068v1.641h1.782v0.947h-1.782v3.691c0,0.848,0.241,1.328,0.934,1.328c0.339,0,0.536-0.027,0.721-0.086
			l0.058,0.949c-0.242,0.084-0.622,0.17-1.103,0.17c-0.581,0-1.048-0.197-1.346-0.523c-0.338-0.383-0.479-0.99-0.479-1.795v-3.734
			h-1.061v-0.947h1.061v-1.258L199.954,74.068z"/>
		<path d="M203.716,75.709l1.484,4.045c0.17,0.451,0.341,0.988,0.452,1.398h0.029c0.126-0.41,0.27-0.932,0.438-1.428l1.358-4.016
			h1.313l-1.865,4.877c-0.891,2.348-1.5,3.551-2.349,4.301c-0.621,0.523-1.215,0.734-1.527,0.791l-0.311-1.047
			c0.311-0.084,0.72-0.283,1.09-0.607c0.34-0.268,0.748-0.75,1.045-1.387c0.059-0.125,0.1-0.211,0.1-0.297
			c0-0.07-0.028-0.168-0.1-0.309l-2.516-6.322H203.716z"/>
		<path d="M212.92,77.943c0-0.877-0.013-1.584-0.055-2.234h1.116l0.071,1.174h0.028c0.493-0.848,1.313-1.33,2.418-1.33
			c1.669,0,2.912,1.4,2.912,3.479c0,2.461-1.513,3.678-3.11,3.678c-0.92,0-1.697-0.396-2.106-1.076h-0.028v3.721h-1.246V77.943z
			 M214.166,79.768c0,0.17,0.013,0.354,0.056,0.51c0.213,0.861,0.975,1.455,1.853,1.455c1.315,0,2.078-1.076,2.078-2.645
			c0-1.371-0.705-2.545-2.021-2.545c-0.849,0-1.654,0.594-1.894,1.527c-0.029,0.17-0.071,0.354-0.071,0.51V79.768z"/>
		<path d="M220.98,77.846c0-0.809-0.014-1.5-0.056-2.137h1.088l0.057,1.344h0.043c0.312-0.92,1.076-1.5,1.909-1.5
			c0.128,0,0.227,0.014,0.338,0.043v1.16c-0.14-0.016-0.267-0.029-0.437-0.029c-0.877,0-1.499,0.664-1.67,1.584
			c-0.027,0.184-0.041,0.383-0.041,0.594v3.648h-1.245L220.98,77.846z"/>
		<path d="M228.291,82.709c-1.838,0-3.28-1.359-3.28-3.521c0-2.291,1.514-3.635,3.394-3.635c1.966,0,3.295,1.428,3.295,3.508
			c0,2.545-1.767,3.648-3.394,3.648H228.291z M228.333,81.775c1.188,0,2.081-1.119,2.081-2.674c0-1.158-0.58-2.615-2.052-2.615
			c-1.456,0-2.092,1.359-2.092,2.658c0,1.5,0.849,2.631,2.051,2.631H228.333z"/>
		<path d="M233.383,82.553v-5.896h-0.947v-0.947h0.947v-0.326c0-0.961,0.227-1.838,0.807-2.389c0.465-0.453,1.088-0.637,1.652-0.637
			c0.454,0,0.82,0.1,1.062,0.199l-0.155,0.959c-0.199-0.082-0.439-0.152-0.807-0.152c-1.046,0-1.329,0.932-1.329,1.979v0.367h1.654
			v0.947h-1.639v5.896H233.383z"/>
		<path d="M237.935,79.344c0.03,1.684,1.09,2.375,2.333,2.375c0.893,0,1.444-0.156,1.896-0.34l0.227,0.877
			c-0.439,0.197-1.203,0.438-2.292,0.438c-2.093,0-3.366-1.398-3.366-3.449c0-2.078,1.232-3.705,3.225-3.705
			c2.234,0,2.814,1.965,2.814,3.223c0,0.256-0.015,0.455-0.042,0.596L237.935,79.344z M241.569,78.453
			c0.016-0.779-0.325-2.023-1.71-2.023c-1.273,0-1.81,1.16-1.909,2.023H241.569z"/>
		<path d="M244.144,81.295c0.38,0.225,1.031,0.48,1.653,0.48c0.891,0,1.313-0.438,1.313-1.018c0-0.596-0.351-0.92-1.256-1.258
			c-1.246-0.455-1.823-1.117-1.823-1.938c0-1.104,0.905-2.01,2.36-2.01c0.692,0,1.302,0.186,1.669,0.424l-0.297,0.893
			c-0.269-0.156-0.765-0.396-1.4-0.396c-0.733,0-1.131,0.424-1.131,0.934c0,0.578,0.397,0.834,1.286,1.174
			c1.175,0.438,1.795,1.031,1.795,2.064c0,1.215-0.945,2.064-2.543,2.064c-0.751,0-1.443-0.197-1.924-0.48L244.144,81.295z"/>
		<path d="M249.742,81.295c0.381,0.225,1.033,0.48,1.654,0.48c0.892,0,1.316-0.438,1.316-1.018c0-0.596-0.354-0.92-1.258-1.258
			c-1.246-0.455-1.825-1.117-1.825-1.938c0-1.104,0.906-2.01,2.362-2.01c0.691,0,1.299,0.186,1.668,0.424l-0.297,0.893
			c-0.271-0.156-0.764-0.396-1.4-0.396c-0.735,0-1.132,0.424-1.132,0.934c0,0.578,0.396,0.834,1.288,1.174
			c1.172,0.438,1.794,1.031,1.794,2.064c0,1.215-0.946,2.064-2.544,2.064c-0.751,0-1.443-0.197-1.922-0.48L249.742,81.295z"/>
		<path d="M256.105,74.451c-0.466,0-0.779-0.367-0.779-0.807s0.328-0.793,0.809-0.793c0.479,0,0.792,0.354,0.792,0.793
			s-0.313,0.807-0.808,0.807H256.105z M255.512,82.553v-6.844h1.246v6.844H255.512z"/>
		<path d="M261.605,82.709c-1.838,0-3.279-1.359-3.279-3.521c0-2.291,1.514-3.635,3.393-3.635c1.967,0,3.294,1.428,3.294,3.508
			c0,2.545-1.766,3.648-3.394,3.648H261.605z M261.648,81.775c1.188,0,2.08-1.119,2.08-2.674c0-1.158-0.581-2.615-2.051-2.615
			c-1.459,0-2.095,1.359-2.095,2.658c0,1.5,0.85,2.631,2.05,2.631H261.648z"/>
		<path d="M266.582,77.563c0-0.721-0.014-1.287-0.056-1.854h1.103l0.071,1.117h0.028c0.339-0.637,1.132-1.273,2.263-1.273
			c0.946,0,2.418,0.564,2.418,2.914v4.086h-1.245v-3.945c0-1.104-0.41-2.035-1.582-2.035c-0.807,0-1.443,0.578-1.67,1.273
			c-0.057,0.154-0.086,0.381-0.086,0.578v4.129h-1.244V77.563z"/>
		<path d="M279.253,80.912c0,0.594,0.029,1.174,0.099,1.641h-1.116l-0.113-0.863h-0.042c-0.369,0.539-1.117,1.02-2.093,1.02
			c-1.387,0-2.095-0.977-2.095-1.967c0-1.654,1.472-2.561,4.116-2.545v-0.141c0-0.566-0.156-1.598-1.557-1.584
			c-0.649,0-1.313,0.184-1.795,0.508l-0.283-0.832c0.565-0.355,1.401-0.596,2.263-0.596c2.106,0,2.616,1.428,2.616,2.801V80.912z
			 M278.038,79.061c-1.358-0.029-2.899,0.213-2.899,1.539c0,0.822,0.537,1.189,1.159,1.189c0.905,0,1.485-0.566,1.683-1.145
			c0.041-0.127,0.058-0.27,0.058-0.396V79.061z"/>
		<path d="M281.246,72.512h1.245v10.041h-1.245V72.512z"/>
		<path d="M284.386,81.295c0.382,0.225,1.031,0.48,1.654,0.48c0.892,0,1.313-0.438,1.313-1.018c0-0.596-0.353-0.92-1.257-1.258
			c-1.245-0.455-1.824-1.117-1.824-1.938c0-1.104,0.904-2.01,2.361-2.01c0.692,0,1.301,0.186,1.669,0.424l-0.298,0.893
			c-0.268-0.156-0.764-0.396-1.399-0.396c-0.734,0-1.131,0.424-1.131,0.934c0,0.578,0.396,0.834,1.286,1.174
			c1.174,0.438,1.795,1.031,1.795,2.064c0,1.215-0.947,2.064-2.544,2.064c-0.75,0-1.443-0.197-1.923-0.48L284.386,81.295z"/>
	</g>
	<g>
		<rect x="122.371" y="47.307" width="68.191" height="0.863"/>
	</g>
	<g>
		<path fill="#CFD0D2" d="M50.388,98.773c-10.943,0-20.849-4.455-28.003-11.646C29.477,94.93,39.707,99.83,51.08,99.83
			c21.406,0,38.762-17.354,38.762-38.76c0-0.016-0.002-0.029-0.002-0.045C88.924,82.025,71.615,98.773,50.388,98.773z"/>
	</g>
	<radialGradient id="SVGID_1_" cx="82.4795" cy="28.9658" r="6.4014" gradientUnits="userSpaceOnUse">
		<stop  offset="0" style="stop-color:#FFFFFF"/>
		<stop  offset="1" style="stop-color:#EE3124"/>
	</radialGradient>
	<circle fill="url(#SVGID_1_)" cx="82.479" cy="28.967" r="6.401"/>
	<radialGradient id="SVGID_2_" cx="92.082" cy="21.6924" r="3.2012" gradientUnits="userSpaceOnUse">
		<stop  offset="0" style="stop-color:#FFFFFF"/>
		<stop  offset="1" style="stop-color:#EE3124"/>
	</radialGradient>
	<circle fill="url(#SVGID_2_)" cx="92.083" cy="21.693" r="3.202"/>
	<radialGradient id="SVGID_3_" cx="100.5195" cy="15.583" r="2.2002" gradientUnits="userSpaceOnUse">
		<stop  offset="0" style="stop-color:#FFFFFF"/>
		<stop  offset="1" style="stop-color:#EE3124"/>
	</radialGradient>
	<circle fill="url(#SVGID_3_)" cx="100.519" cy="15.584" r="2.201"/>
	<radialGradient id="SVGID_4_" cx="88.5332" cy="42.4697" r="4.4868" gradientUnits="userSpaceOnUse">
		<stop  offset="0" style="stop-color:#FFFFFF"/>
		<stop  offset="1" style="stop-color:#EE3124"/>
	</radialGradient>
	<circle fill="url(#SVGID_4_)" cx="88.534" cy="42.471" r="4.486"/>
	<radialGradient id="SVGID_5_" cx="95.2627" cy="37.3711" r="2.2427" gradientUnits="userSpaceOnUse">
		<stop  offset="0" style="stop-color:#FFFFFF"/>
		<stop  offset="1" style="stop-color:#EE3124"/>
	</radialGradient>
	<circle fill="url(#SVGID_5_)" cx="95.263" cy="37.371" r="2.243"/>
	<radialGradient id="SVGID_6_" cx="101.1777" cy="33.0879" r="1.5425" gradientUnits="userSpaceOnUse">
		<stop  offset="0" style="stop-color:#FFFFFF"/>
		<stop  offset="1" style="stop-color:#EE3124"/>
	</radialGradient>
	<circle fill="url(#SVGID_6_)" cx="101.177" cy="33.09" r="1.542"/>
	<radialGradient id="SVGID_7_" cx="70.4258" cy="21.4648" r="4.4863" gradientUnits="userSpaceOnUse">
		<stop  offset="0" style="stop-color:#FFFFFF"/>
		<stop  offset="1" style="stop-color:#EE3124"/>
	</radialGradient>
	<circle fill="url(#SVGID_7_)" cx="70.426" cy="21.465" r="4.486"/>
	<radialGradient id="SVGID_8_" cx="77.1553" cy="16.3662" r="2.2432" gradientUnits="userSpaceOnUse">
		<stop  offset="0" style="stop-color:#FFFFFF"/>
		<stop  offset="1" style="stop-color:#EE3124"/>
	</radialGradient>
	<circle fill="url(#SVGID_8_)" cx="77.155" cy="16.367" r="2.243"/>
	<radialGradient id="SVGID_9_" cx="83.0703" cy="12.083" r="1.542" gradientUnits="userSpaceOnUse">
		<stop  offset="0" style="stop-color:#FFFFFF"/>
		<stop  offset="1" style="stop-color:#EE3124"/>
	</radialGradient>
	<circle fill="url(#SVGID_9_)" cx="83.07" cy="12.084" r="1.542"/>
	<g>
		<path fill="none" d="M37.457,78.797c-0.919-0.232-1.724-0.842-1.99-1.938c-0.297-1.223-0.623-2.469-0.94-3.672l-0.488-1.871
			c-0.06-0.23-0.176-0.561-0.299-0.908c-0.333-0.941-0.709-2.008-0.661-2.99c0.04-0.799,0.568-2.621,1.859-3.424
			c0.018-0.615,0.074-1.34,0.159-2.205c0.028-0.268,0.058-0.572,0.06-0.67c0.057-1.898,0.24-3.955,1.205-6.133
			c1.457-3.289,4.578-7.221,8.968-8.398l1.146-0.305l0.692,0.963c1.048,1.453,1.652,2.313,1.798,2.555
			c0.05,0.082,0.192,0.328,0.351,0.662c0.863,0.48,1.028,1.693,1.224,3.154c0.445,3.295,0.621,4.023,0.678,4.184
			c-0.002-0.002-0.011-0.031-0.035-0.08c0.125,0.248,0.39,1.256,0.639,2.326c0.011-0.025,0.021-0.051,0.03-0.076
			c0.071-0.176,0.175-0.436,0.201-0.539c0.028-0.238,0.087-1.164,0.126-1.787c0.061-0.939,0.101-1.533,0.133-1.836
			c0.019-0.17,0.043-0.531,0.065-0.881c0.073-1.09,0.128-1.838,0.244-2.307c0.136-0.539,0.353-0.875,0.496-1.096
			c0.083-0.127,0.099-0.15,0.13-0.258c0.178-0.592,0.477-1.188,0.674-1.582c0.041-0.084,0.098-0.197,0.082-0.15
			c0.045-0.133,0.334-1.102,0.59-1.963c0,0,0.122-0.418,0.145-0.441l0.308-0.307l0.658-0.656l0.909,0.188
			c6.199,1.295,9.779,5.369,10.354,11.781c0.005,0.057,0.344,4.07,0.072,6.83c0.707,0.396,1.148,0.92,1.417,1.377
			c1.44,2.459-0.05,6.197-1.138,8.928c-0.195,0.488-0.365,0.916-0.483,1.254c-0.042,0.58-0.343,0.83-2.546,2.391L62.814,84
			c9.518-5.475,15.934-15.738,15.934-27.508c0-17.518-14.201-31.719-31.72-31.719s-31.72,14.201-31.72,31.719
			c0,14.053,9.142,25.963,21.8,30.129c0.509-1.016,1.154-2.195,1.807-3.066L37.457,78.797z"/>
		<path fill="#EE3124" d="M87.494,58.275c0-20.887-16.934-37.82-37.823-37.82c-20.889,0-37.823,16.934-37.823,37.82
			c0,13.758,7.347,25.797,18.328,32.418l1.726-0.543c2.065-0.947,3.788-1.836,4.601-2.266c0.16-0.352,0.37-0.793,0.606-1.264
			c-12.658-4.166-21.8-16.076-21.8-30.129c0-17.518,14.201-31.719,31.72-31.719s31.72,14.201,31.72,31.719
			c0,11.77-6.416,22.033-15.934,27.508l-0.531,1.834l1.057,3.584c0.377,0.23,0.931,0.564,1.616,0.967l0.444,0.264
			c0.375,0.18,0.736,0.357,1.061,0.529l0.952,0.504C79.357,85.324,87.494,72.752,87.494,58.275z"/>
	</g>
	<g>
		<radialGradient id="SVGID_10_" cx="117.1787" cy="81.1533" r="58.8734" gradientUnits="userSpaceOnUse">
			<stop  offset="0.5955" style="stop-color:#FFFFFF"/>
			<stop  offset="1" style="stop-color:#EE3124"/>
		</radialGradient>
		<path fill="url(#SVGID_10_)" d="M15.436,57.395c0-8.07,2.852-15.479,7.601-21.266c-5.3,6.213-8.508,14.27-8.508,23.078
			c0,13.143,7.13,24.615,17.728,30.779c1.438-0.668,2.688-1.291,3.541-1.732C23.824,83.129,15.436,71.242,15.436,57.395z"/>
		<radialGradient id="SVGID_11_" cx="117.1729" cy="81.1553" r="58.8687" gradientUnits="userSpaceOnUse">
			<stop  offset="0.5955" style="stop-color:#FFFFFF"/>
			<stop  offset="1" style="stop-color:#EE3124"/>
		</radialGradient>
		<path fill="url(#SVGID_11_)" d="M85.711,59.207c0-19.656-15.936-35.592-35.592-35.592c-3.195,0-6.29,0.43-9.237,1.219
			c2.596-0.645,5.311-0.992,8.105-0.992c18.532,0,33.552,15.021,33.552,33.553c0,13.566-8.055,25.244-19.639,30.533l0.439,1.49
			c0.377,0.23,0.931,0.564,1.616,0.967l0.444,0.264c0.248,0.119,0.484,0.236,0.714,0.352C77.735,85.143,85.711,73.109,85.711,59.207
			z"/>
	</g>
	<radialGradient id="SVGID_12_" cx="52.9219" cy="58.3955" r="22.6154" gradientUnits="userSpaceOnUse">
		<stop  offset="0" style="stop-color:#9B9DA0"/>
		<stop  offset="1" style="stop-color:#000000"/>
	</radialGradient>
	<path fill="url(#SVGID_12_)" d="M64.088,91.867c-1.348-0.787-2.211-1.334-2.211-1.334l-1.383-4.693l2.309-7.979l2.318-1.641
		c0.786-2.467,4.562-9.49,0-10.088c0.393,0.051,0.188-7.24,0.132-7.838C64.684,51.938,61,49.027,56.26,48.039l-0.021,0.021
		c0,0-0.537,1.816-0.604,2.018c-0.068,0.203-0.538,1.01-0.741,1.682c-0.2,0.674-0.473,0.74-0.604,1.279
		c-0.136,0.539-0.203,2.355-0.271,2.961c-0.066,0.605-0.201,3.23-0.269,3.701s-0.537,1.344-0.606,1.816
		c-0.066,0.471-0.873,11.168-0.873,11.168s-0.271-2.49-0.271-2.826s-0.337-0.807-0.47-1.076c-0.135-0.27-0.403-1.076-0.473-1.814
		c-0.068-0.742,0-1.684,0-2.088s-0.402-1.547-0.402-1.951s-0.875-4.172-1.01-4.439c-0.135-0.27-0.337-1.145-0.807-4.643
		c-0.472-3.5-0.539-0.943-0.674-1.549c-0.134-0.604-0.471-1.277-0.672-1.615c-0.158-0.26-1.234-1.764-1.718-2.434
		c-3.544,0.947-6.415,4.209-7.841,7.432c-0.796,1.795-1.002,3.541-1.059,5.488c-0.021,0.701-0.511,3.938,0.027,4.49
		c-1.148-1.182-2.068,1.076-2.107,1.842c-0.048,0.955,0.667,2.451,0.907,3.385c0.478,1.855,0.983,3.705,1.436,5.568
		c0.226,0.938,1.616,0.703,1.616,0.703l2.083,6.807c-1.155,0.938-3.008,5.16-3.008,5.16s-2.422,1.326-5.552,2.742
		c0,0-0.282,0.16-0.531,0.24c5.34,2.844,11.433,4.463,17.906,4.463c5.143,0,10.047-1.025,14.525-2.871
		c0.502-0.322,1-0.65,1.48-1.002C65.122,92.414,64.088,91.867,64.088,91.867z"/>
	<path fill="#FFFFFF" d="M55.396,75.449v-3.596h-0.414l-0.785,0.42l0.094,0.371l0.625-0.338h0.012v3.143H55.396z M61.652,81.041
		h0.007c0.081,0,0.156-0.012,0.23-0.027l0.142-0.488c-0.099,0.088-0.216,0.141-0.355,0.141H61.67c-0.447,0-0.736-0.564-0.725-1.5
		c0-0.9,0.287-1.467,0.73-1.467c0.508,0,0.73,0.582,0.73,1.467c0,0.025-0.004,0.051-0.004,0.074l0.332-1.145
		c-0.19-0.494-0.541-0.771-1.02-0.771c-0.73,0-1.257,0.658-1.257,1.869C60.471,80.383,60.951,81.041,61.652,81.041z M55.077,77.324
		c-0.73,0-1.256,0.658-1.256,1.869c0.011,1.189,0.491,1.848,1.195,1.848h0.006c0.785,0,1.243-0.674,1.243-1.896
		C56.266,78,55.83,77.324,55.077,77.324z M55.037,80.666h-0.005c-0.448,0-0.736-0.564-0.725-1.5c0-0.9,0.288-1.467,0.729-1.467
		c0.511,0,0.731,0.582,0.731,1.467C55.769,80.084,55.53,80.666,55.037,80.666z M55.396,64.385v-3.596h-0.414l-0.785,0.422
		l0.094,0.369l0.625-0.338h0.012v3.143H55.396z M55.077,55.197c-0.461,0-0.837,0.262-1.056,0.756
		c-0.001,0.014-0.002,0.033-0.004,0.047c-0.032,0.283-0.076,1.006-0.125,1.744c0.158,0.756,0.57,1.17,1.124,1.17h0.006
		c0.785,0,1.243-0.676,1.243-1.896C56.266,55.871,55.83,55.197,55.077,55.197z M55.037,58.539h-0.005
		c-0.448,0-0.736-0.563-0.725-1.5c0-0.9,0.288-1.465,0.729-1.465c0.511,0,0.731,0.58,0.731,1.465
		C55.769,57.957,55.53,58.539,55.037,58.539z M55.077,88.387c-0.73,0-1.256,0.658-1.256,1.869c0.011,1.189,0.491,1.85,1.195,1.85
		h0.006c0.785,0,1.243-0.676,1.243-1.898C56.266,89.063,55.83,88.387,55.077,88.387z M55.037,91.729h-0.005
		c-0.448,0-0.736-0.564-0.725-1.5c0-0.902,0.288-1.467,0.729-1.467c0.511,0,0.731,0.584,0.731,1.467
		C55.769,91.146,55.53,91.729,55.037,91.729z M55.077,66.26c-0.73,0-1.256,0.658-1.256,1.869c0.011,1.191,0.491,1.85,1.195,1.85
		h0.006c0.785,0,1.243-0.676,1.243-1.898C56.266,66.936,55.83,66.26,55.077,66.26z M55.037,69.602h-0.005
		c-0.448,0-0.736-0.564-0.725-1.498c0-0.902,0.288-1.467,0.729-1.467c0.511,0,0.731,0.58,0.731,1.467
		C55.769,69.021,55.53,69.602,55.037,69.602z M62.035,64.385v-3.596h-0.414l-0.786,0.422l0.093,0.369l0.626-0.338h0.012v3.143
		H62.035z M55.396,86.512v-3.596h-0.414l-0.785,0.422l0.094,0.371l0.625-0.34h0.012v3.143H55.396z M61.676,91.729H61.67
		c-0.447,0-0.736-0.564-0.725-1.5c0-0.684,0.166-1.172,0.438-1.369l-0.108-0.375c-0.492,0.219-0.817,0.822-0.817,1.771
		c0.013,1.189,0.493,1.85,1.194,1.85h0.007c0.565,0,0.958-0.355,1.135-1.008c-0.169-0.102-0.307-0.186-0.43-0.264
		C62.274,91.393,62.049,91.729,61.676,91.729z M62.035,75.449v-3.596h-0.414l-0.786,0.42l0.093,0.371l0.626-0.338h0.012v3.143
		H62.035z M60.928,83.709l0.216-0.117l0.146-0.498l-0.454,0.244L60.928,83.709z M61.715,55.197c-0.73,0-1.257,0.658-1.257,1.869
		c0.013,1.189,0.493,1.848,1.194,1.848h0.007c0.784,0,1.243-0.676,1.243-1.896C62.902,55.871,62.466,55.197,61.715,55.197z
		 M61.676,58.539H61.67c-0.447,0-0.736-0.563-0.725-1.5c0-0.9,0.287-1.465,0.73-1.465c0.508,0,0.73,0.58,0.73,1.465
		C62.406,57.957,62.168,58.539,61.676,58.539z M62.035,50.883c-0.153-0.145-0.308-0.289-0.47-0.424v2.863h0.47V50.883z
		 M61.715,66.26c-0.73,0-1.257,0.658-1.257,1.869c0.013,1.191,0.493,1.85,1.194,1.85h0.007c0.784,0,1.243-0.676,1.243-1.898
		C62.902,66.936,62.466,66.26,61.715,66.26z M61.676,69.602H61.67c-0.447,0-0.736-0.564-0.725-1.498c0-0.902,0.287-1.467,0.73-1.467
		c0.508,0,0.73,0.58,0.73,1.467C62.406,69.021,62.168,69.602,61.676,69.602z M55.396,50.572c-0.153,0.313-0.345,0.711-0.469,1.086
		v1.664h0.469V50.572z M61.352,50.291c-0.105-0.084-0.208-0.172-0.317-0.252l-0.199,0.107l0.093,0.371L61.352,50.291z
		 M67.143,67.584c-0.026,0.168-0.047,0.348-0.047,0.545c0.005,0.469,0.084,0.85,0.217,1.145
		C67.364,68.646,67.322,68.068,67.143,67.584z M48.439,77.324c-0.732,0-1.256,0.658-1.256,1.869c0.01,1.189,0.491,1.848,1.192,1.848
		h0.007c0.787,0,1.245-0.674,1.245-1.896C49.628,78,49.191,77.324,48.439,77.324z M48.4,80.666h-0.006
		c-0.449,0-0.735-0.564-0.725-1.5c0-0.9,0.287-1.467,0.73-1.467c0.508,0,0.73,0.582,0.73,1.467
		C49.131,80.084,48.891,80.666,48.4,80.666z M48.76,75.449v-3.596h-0.415l-0.787,0.42l0.095,0.371l0.625-0.338h0.013v3.143H48.76z
		 M40.922,94.4l0.094,0.371l0.625-0.338h0.009v1.277c0.158,0.033,0.313,0.072,0.472,0.102V93.98h-0.415L40.922,94.4z M48.76,86.512
		v-3.596h-0.415l-0.787,0.422l0.095,0.371l0.625-0.34h0.013v3.143H48.76z M48.439,66.26c-0.732,0-1.256,0.658-1.256,1.869
		c0.01,1.191,0.491,1.85,1.192,1.85h0.007c0.787,0,1.245-0.676,1.245-1.898C49.628,66.936,49.191,66.26,48.439,66.26z M48.4,69.602
		h-0.006c-0.449,0-0.735-0.564-0.725-1.498c0-0.902,0.287-1.467,0.73-1.467c0.508,0,0.73,0.58,0.73,1.467
		C49.131,69.021,48.891,69.602,48.4,69.602z M48.439,88.387c-0.732,0-1.256,0.658-1.256,1.869c0.01,1.189,0.491,1.85,1.192,1.85
		h0.007c0.787,0,1.245-0.676,1.245-1.898C49.628,89.063,49.191,88.387,48.439,88.387z M48.4,91.729h-0.006
		c-0.449,0-0.735-0.564-0.725-1.5c0-0.902,0.287-1.467,0.73-1.467c0.508,0,0.73,0.584,0.73,1.467
		C49.131,91.146,48.891,91.729,48.4,91.729z M47.558,94.4l0.095,0.371l0.625-0.338h0.013v2.094c0.155,0.006,0.313,0.012,0.47,0.016
		V93.98h-0.415L47.558,94.4z M35.852,90.154c0,0.025,0.003,0.049,0.003,0.074c0,0.918-0.238,1.5-0.731,1.5h-0.004
		c-0.338,0-0.584-0.318-0.681-0.873c-0.142,0.068-0.287,0.137-0.434,0.207c0.176,0.676,0.573,1.043,1.097,1.043h0.006
		c0.785,0,1.244-0.676,1.244-1.898c0-0.105-0.008-0.201-0.015-0.299C36.185,89.986,36.023,90.068,35.852,90.154z M48.76,64.385
		v-3.596h-0.415l-0.787,0.422l0.095,0.369l0.625-0.338h0.013v3.143H48.76z M48.76,53.299c-0.265-1.75-0.384-1.385-0.47-1.09v1.113
		h0.47V53.299z M48.376,58.914h0.007c0.54,0,0.921-0.324,1.109-0.92c-0.103-0.438-0.24-1.213-0.438-2.59
		c-0.172-0.133-0.374-0.207-0.614-0.207c-0.732,0-1.256,0.658-1.256,1.869C47.193,58.256,47.675,58.914,48.376,58.914z M48.4,55.574
		c0.508,0,0.73,0.58,0.73,1.465c0,0.918-0.24,1.5-0.73,1.5h-0.006c-0.449,0-0.735-0.563-0.725-1.5
		C47.67,56.139,47.957,55.574,48.4,55.574z M42.121,75.449v-3.596h-0.415l-0.784,0.42l0.094,0.371l0.625-0.338h0.009v3.143H42.121z
		 M41.8,77.324c-0.729,0-1.254,0.658-1.254,1.869c0.011,1.189,0.491,1.848,1.194,1.848h0.005c0.786,0,1.244-0.674,1.244-1.896
		C42.989,78,42.553,77.324,41.8,77.324z M41.762,80.666h-0.005c-0.448,0-0.736-0.564-0.726-1.5c0-0.9,0.288-1.467,0.73-1.467
		c0.509,0,0.729,0.582,0.729,1.467C42.491,80.084,42.255,80.666,41.762,80.666z M42.121,50.162
		c-0.158,0.129-0.316,0.262-0.472,0.398v2.762h0.472V50.162z M41.8,88.387c-0.729,0-1.254,0.658-1.254,1.869
		c0.011,1.189,0.491,1.85,1.194,1.85h0.005c0.786,0,1.244-0.676,1.244-1.898C42.989,89.063,42.553,88.387,41.8,88.387z
		 M41.762,91.729h-0.005c-0.448,0-0.736-0.564-0.726-1.5c0-0.902,0.288-1.467,0.73-1.467c0.509,0,0.729,0.584,0.729,1.467
		C42.491,91.146,42.255,91.729,41.762,91.729z M60.835,94.4l0.093,0.371l0.626-0.338h0.012v0.221
		c0.157-0.051,0.313-0.102,0.47-0.154v-0.52h-0.414L60.835,94.4z M35.182,66.262c-0.067,0.131-0.126,0.264-0.175,0.395
		c0.038-0.01,0.075-0.02,0.116-0.02c0.509,0,0.731,0.58,0.731,1.467c0,0.82-0.192,1.369-0.585,1.477
		c0.043,0.123,0.084,0.242,0.127,0.361c0.607-0.15,0.955-0.797,0.955-1.861C36.352,66.945,35.922,66.273,35.182,66.262z
		 M42.121,86.512v-3.596h-0.415l-0.784,0.422l0.094,0.371l0.625-0.34h0.009v3.143H42.121z M41.8,55.197
		c-0.729,0-1.254,0.658-1.254,1.869c0.011,1.189,0.491,1.848,1.194,1.848h0.005c0.786,0,1.244-0.676,1.244-1.896
		C42.989,55.871,42.553,55.197,41.8,55.197z M41.762,58.539h-0.005c-0.448,0-0.736-0.563-0.726-1.5c0-0.9,0.288-1.465,0.73-1.465
		c0.509,0,0.729,0.58,0.729,1.465C42.491,57.957,42.255,58.539,41.762,58.539z M42.121,64.385v-3.596h-0.415l-0.784,0.422
		l0.094,0.369l0.625-0.338h0.009v3.143H42.121z M54.197,94.4l0.094,0.371l0.625-0.338h0.012v1.766
		c0.156-0.023,0.314-0.041,0.469-0.064V93.98h-0.414L54.197,94.4z M41.8,66.26c-0.729,0-1.254,0.658-1.254,1.869
		c0.011,1.191,0.491,1.85,1.194,1.85h0.005c0.786,0,1.244-0.676,1.244-1.898C42.989,66.936,42.553,66.26,41.8,66.26z M41.762,69.602
		h-0.005c-0.448,0-0.736-0.564-0.726-1.498c0-0.902,0.288-1.467,0.73-1.467c0.509,0,0.729,0.58,0.729,1.467
		C42.491,69.021,42.255,69.602,41.762,69.602z"/>
	<g>
		<radialGradient id="SVGID_13_" cx="47.1074" cy="55.6455" r="29.4526" gradientUnits="userSpaceOnUse">
			<stop  offset="0.3258" style="stop-color:#FFFFFF"/>
			<stop  offset="1" style="stop-color:#CFD0D2"/>
		</radialGradient>
		<path fill="url(#SVGID_13_)" d="M37.457,78.797c-0.919-0.232-1.724-0.842-1.99-1.938c-0.297-1.223-0.623-2.469-0.94-3.672
			l-0.488-1.871c-0.06-0.23-0.176-0.561-0.299-0.908c-0.333-0.941-0.709-2.008-0.661-2.99c0.04-0.799,0.568-2.621,1.859-3.424
			c0.018-0.615,0.074-1.34,0.159-2.205c0.028-0.268,0.058-0.572,0.06-0.67c0.057-1.898,0.24-3.955,1.205-6.133
			c1.457-3.289,4.578-7.221,8.968-8.398l1.146-0.305l0.692,0.963c1.048,1.453,1.652,2.313,1.798,2.555
			c0.05,0.082,0.192,0.328,0.351,0.662c0.863,0.48,1.028,1.693,1.224,3.154c0.445,3.295,0.621,4.023,0.678,4.184
			c-0.002-0.002-0.011-0.031-0.035-0.08c0.125,0.248,0.39,1.256,0.639,2.326c0.011-0.025,0.021-0.051,0.03-0.076
			c0.071-0.176,0.175-0.436,0.201-0.539c0.028-0.238,0.087-1.164,0.126-1.787c0.061-0.939,0.101-1.533,0.133-1.836
			c0.019-0.17,0.043-0.531,0.065-0.881c0.073-1.09,0.128-1.838,0.244-2.307c0.136-0.539,0.353-0.875,0.496-1.096
			c0.083-0.127,0.099-0.15,0.13-0.258c0.178-0.592,0.477-1.188,0.674-1.582c0.041-0.084,0.098-0.197,0.082-0.15
			c0.045-0.133,0.334-1.102,0.59-1.963c0,0,0.122-0.418,0.145-0.441l0.308-0.307l0.658-0.656l0.909,0.188
			c6.199,1.295,9.779,5.369,10.354,11.781c0.005,0.057,0.344,4.07,0.072,6.83c0.707,0.396,1.148,0.92,1.417,1.377
			c1.44,2.459-0.05,6.197-1.138,8.928c-0.195,0.488-0.365,0.916-0.483,1.254c-0.042,0.58-0.343,0.83-2.546,2.391l-0.238,0.816
			c7.565-5.332,12.512-14.127,12.512-24.084c0-16.266-13.188-29.453-29.453-29.453c-16.268,0-29.453,13.188-29.453,29.453
			c0,13.34,8.873,24.602,21.035,28.225c0.076-0.109,0.149-0.219,0.226-0.318L37.457,78.797z"/>
	</g>
	<g>
		<path opacity="0.35" fill="#FFFFFF" d="M34.938,63.994c0.018-0.615,0.074-1.34,0.159-2.205c0.028-0.268,0.058-0.572,0.06-0.67
			c0.057-1.898,0.24-3.955,1.205-6.133c1.457-3.289,4.578-7.221,8.968-8.398l1.146-0.305l0.692,0.963
			c1.048,1.453,1.652,2.313,1.798,2.555c0.05,0.082,0.192,0.328,0.351,0.662c0.863,0.48,1.028,1.693,1.224,3.154
			c0.445,3.295,0.621,4.023,0.678,4.184c-0.002-0.002-0.011-0.031-0.035-0.08c0.125,0.248,0.39,1.256,0.639,2.326
			c0.011-0.025,0.021-0.051,0.03-0.076c0.071-0.176,0.175-0.436,0.201-0.539c0.028-0.238,0.087-1.164,0.126-1.787
			c0.061-0.939,0.101-1.533,0.133-1.836c0.019-0.17,0.043-0.531,0.065-0.881c0.073-1.09,0.128-1.838,0.244-2.307
			c0.136-0.539,0.353-0.875,0.496-1.096c0.083-0.127,0.099-0.15,0.13-0.258c0.178-0.592,0.477-1.188,0.674-1.582
			c0.041-0.084,0.098-0.197,0.082-0.15c0.045-0.133,0.334-1.102,0.59-1.963c0,0,0.122-0.418,0.145-0.441l0.308-0.307l0.658-0.656
			l0.909,0.188c3.273,0.686,5.809,2.152,7.566,4.32c0.002-0.125,0.009-0.25,0.009-0.377c0-11.387-9.233-20.619-20.62-20.619
			c-11.389,0-20.62,9.232-20.62,20.619c0,7.57,4.08,14.182,10.158,17.768c-0.024-0.219-0.036-0.436-0.026-0.648
			C33.118,66.619,33.646,64.797,34.938,63.994z"/>
	</g>
	<linearGradient id="SVGID_14_" gradientUnits="userSpaceOnUse" x1="51.5039" y1="48.4941" x2="47.7439" y2="41.6786">
		<stop  offset="0" style="stop-color:#FFFFFF"/>
		<stop  offset="1" style="stop-color:#000000"/>
	</linearGradient>
	<path fill="url(#SVGID_14_)" d="M47.502,39.719c0,0,4.439,6.715,2.514,11.287L53.76,47.9C53.76,47.9,52.314,42.848,47.502,39.719z"
		/>
	<g>
		<linearGradient id="SVGID_15_" gradientUnits="userSpaceOnUse" x1="36.4678" y1="36.3408" x2="38.1858" y2="41.4948">
			<stop  offset="0.6011" style="stop-color:#FFFFFF"/>
			<stop  offset="1" style="stop-color:#C5C6C8"/>
		</linearGradient>
		<path fill="url(#SVGID_15_)" d="M43.839,31.492l-14.957,7.035c-1.028,0.482-1.563,1.508-1.197,2.289l3.116,6.625
			c0.367,0.779,1.5,1.021,2.525,0.537l14.961-7.033L43.839,31.492z"/>
		<path d="M43.656,31.104l-14.958,7.035c-1.24,0.584-1.868,1.865-1.402,2.859l3.116,6.627c0.469,0.994,1.857,1.328,3.098,0.744
			l14.958-7.035l0.39-0.182l-0.184-0.391l-4.484-9.381l-0.318-0.143L43.656,31.104z M48.102,40.557l-14.958,7.035
			c-0.797,0.375-1.692,0.223-1.954-0.332l-3.115-6.627c-0.262-0.557,0.191-1.342,0.988-1.717l14.959-7.033l-0.571-0.207l4.446,9.453
			L48.102,40.557z"/>
	</g>
	
		<linearGradient id="SVGID_16_" gradientUnits="userSpaceOnUse" x1="412.4053" y1="-1526.2676" x2="412.7057" y2="-1529.6726" gradientTransform="matrix(0.4256 0.9049 -0.9049 0.4256 -1512.7937 313.4316)">
		<stop  offset="0" style="stop-color:#9B9DA0"/>
		<stop  offset="1" style="stop-color:#000000"/>
	</linearGradient>
	<path fill="url(#SVGID_16_)" d="M48.411,41.361c-0.599,0.281-2.175-1.83-3.47-4.578c-1.293-2.752-1.928-5.375-1.326-5.658
		c0.601-0.279,2.207,1.885,3.501,4.635S49.012,41.08,48.411,41.361z"/>
	<g>
		<path d="M51.68,47.871h-0.011l-0.604,0.326l-0.092-0.359l0.762-0.406h0.4v3.484H51.68V47.871z"/>
		<path d="M51.766,56.332c-0.68,0-1.147-0.637-1.157-1.789c0-1.174,0.509-1.811,1.216-1.811c0.729,0,1.153,0.652,1.153,1.762
			c0,1.186-0.446,1.838-1.207,1.838H51.766z M51.788,55.969c0.478,0,0.706-0.561,0.706-1.451c0-0.859-0.213-1.422-0.706-1.422
			c-0.43,0-0.709,0.547-0.709,1.422c-0.009,0.904,0.269,1.451,0.702,1.451H51.788z"/>
		<path d="M51.68,58.59h-0.011l-0.604,0.326l-0.092-0.359l0.762-0.406h0.4v3.482H51.68V58.59z"/>
	</g>
</g>
</svg>
