<svg xmlns="http://www.w3.org/2000/svg" xmlns:xlink="http://www.w3.org/1999/xlink" viewBox="0 0 623.62 255.12"><defs><style>.cls-1{fill:#fff;}.cls-2{fill:#e95a0c;}.cls-3{fill:url(#Nuovo_campione_sfumatura_1);}.cls-4{fill:#6f6f6e;}</style><linearGradient id="Nuovo_campione_sfumatura_1" x1="164.16" y1="170.65" x2="51.38" y2="85.35" gradientUnits="userSpaceOnUse"><stop offset="0" stop-color="#e95a0c"/><stop offset="1" stop-color="#f8af00"/></linearGradient></defs><title>facile</title><g id="BG"><rect class="cls-1" width="623.62" height="255.12"/></g><g id="Logo"><path class="cls-2" d="M212,112.38H201.58V98.44H212c0-18.88,6.59-24.71,25-24.71,3.42,0,7,.25,10.39.38v15.2a46.51,46.51,0,0,0-5.83-.38c-4.94,0-8,.63-8,6.59v2.91h12.92v13.94H233.51V164.2H212Z"/><path class="cls-2" d="M243.15,118.71c.38-8.62,4.44-14.19,10.26-17.61s13.43-4.56,20.91-4.56c15.58,0,30.66,3.42,30.66,22v28.76c0,5.57,0,11.66,2.53,16.85H285.85a25.77,25.77,0,0,1-1.27-6.21c-5.58,5.83-13.81,8.11-21.67,8.11-12.54,0-22.43-6.33-22.43-19.89,0-21.41,23.31-19.77,38.26-22.81,3.67-.76,5.7-2,5.7-6.08,0-4.94-6-6.84-10.39-6.84-6,0-9.76,2.66-10.77,8.24ZM271,152.8c10.26,0,13.68-5.83,13.18-19.39-3,1.9-8.62,2.28-13.3,3.55s-8.87,3.17-8.87,8.36S266.21,152.8,271,152.8Z"/><path class="cls-2" d="M351.86,122.51c-.13-5.58-5.07-9.5-10.52-9.5-12,0-13.94,10.26-13.94,19.39,0,8.49,3.67,17.23,12.8,17.23,7.48,0,11.28-4.31,12.29-11.28h20.91c-1.9,17.61-15.59,27.75-33.07,27.75-19.77,0-34.46-13.56-34.46-33.7,0-20.91,13.3-35.86,34.46-35.86,16.34,0,30.92,8.62,32.44,26Z"/><path class="cls-2" d="M396.34,90.2H374.8V73.73h21.54ZM374.8,98.44h21.54V164.2H374.8Z"/><path class="cls-2" d="M402.17,73.73h21.54V164.2H402.17Z"/><path class="cls-2" d="M447.15,136.58c.38,9,5.57,15,14.7,15,5.19,0,10.26-2.41,12.29-7.22h20.15c-3.93,15.21-18,21.79-32.69,21.79-21.41,0-36-12.92-36-35,0-20.15,16.09-34.59,35.48-34.59,23.57,0,35.35,17.74,34.34,40Zm26.74-12c-.38-7.35-5.57-13.43-12.8-13.43-7.6,0-12.67,5.45-13.94,13.43Z"/><path class="cls-2" d="M497.08,140.63h23.57V164.2H497.08Z"/><path class="cls-2" d="M548.27,90.2H526.73V73.73h21.54Zm-21.54,8.24h21.54V164.2H526.73Z"/><path class="cls-2" d="M593,112.38H579.7v29.9c0,5.19,3,6.33,7.73,6.33,1.77,0,3.68-.25,5.58-.25V164.2c-3.93.13-7.86.63-11.78.63-18.37,0-23.06-5.32-23.06-23.19V112.38h-10.9V98.44h10.9V78.55H579.7V98.44H593Z"/><path class="cls-3" d="M183.28,141.17c0-4.9,0-31.25,0-31.25A58.91,58.91,0,0,0,124.41,51h-35a58.86,58.86,0,0,0-58.84,58.84v35a58.87,58.87,0,0,0,58.83,58.89H204.11S183.27,197.58,183.28,141.17Zm-98.2,36.31a28.26,28.26,0,0,1-23.37-12.26A28,28,0,0,1,56.66,149V105.69a28.4,28.4,0,0,1,28.4-28.45h43.36a28.29,28.29,0,0,1,23.41,12.29,27.9,27.9,0,0,1,5.06,16.18s0,32.66,0,38.77a268.26,268.26,0,0,0,1.92,33Z"/><path class="cls-2" d="M141.26,136.11a79.61,79.61,0,0,1-67.79,0l6.33-13.45a64.76,64.76,0,0,0,55.13,0Z"/><path class="cls-4" d="M215.49,198.18a5.77,5.77,0,0,0,2,2.22,8.48,8.48,0,0,0,3,1.18,17.91,17.91,0,0,0,3.67.36,11,11,0,0,0,2.43-.3,8.74,8.74,0,0,0,2.45-1,6.1,6.1,0,0,0,1.89-1.69,4.12,4.12,0,0,0,.76-2.5,3.51,3.51,0,0,0-.54-2,4.77,4.77,0,0,0-1.39-1.39,8.45,8.45,0,0,0-1.89-.92,19.36,19.36,0,0,0-2-.58l-6.34-1.47a19.77,19.77,0,0,1-2.41-.75,6.89,6.89,0,0,1-2.05-1.2,5.72,5.72,0,0,1-1.41-1.84,6,6,0,0,1-.54-2.67,8.05,8.05,0,0,1,.4-2.29,6.27,6.27,0,0,1,1.49-2.48,8.73,8.73,0,0,1,3-2,12.72,12.72,0,0,1,4.9-.81,15.08,15.08,0,0,1,4,.53,10.16,10.16,0,0,1,3.35,1.58,7.94,7.94,0,0,1,2.29,2.61,7.41,7.41,0,0,1,.86,3.63h-2.71a6,6,0,0,0-.74-2.69,6.13,6.13,0,0,0-1.71-1.92,7.7,7.7,0,0,0-2.43-1.16,10.44,10.44,0,0,0-2.89-.4,12.61,12.61,0,0,0-2.69.28,7,7,0,0,0-2.27.9,4.78,4.78,0,0,0-1.57,1.64,4.89,4.89,0,0,0-.6,2.52,3.69,3.69,0,0,0,.34,1.64,3.49,3.49,0,0,0,.94,1.18,5,5,0,0,0,1.38.79,10.92,10.92,0,0,0,1.65.49l6.93,1.62a20.74,20.74,0,0,1,2.85.92,9.58,9.58,0,0,1,2.35,1.35,5.76,5.76,0,0,1,1.59,2,6.31,6.31,0,0,1,.58,2.82,9.78,9.78,0,0,1-.1,1.2,5.83,5.83,0,0,1-.48,1.6,7.91,7.91,0,0,1-1.08,1.71,6.68,6.68,0,0,1-1.91,1.56,11.5,11.5,0,0,1-3,1.13,18.68,18.68,0,0,1-4.3.43,19,19,0,0,1-4.66-.55,10.29,10.29,0,0,1-3.67-1.67A7.43,7.43,0,0,1,212.8,199a9,9,0,0,1-.7-4.25h2.71A7.18,7.18,0,0,0,215.49,198.18Z"/><path class="cls-4" d="M258.26,182.08a7.77,7.77,0,0,0-2-2.05,9.1,9.1,0,0,0-2.59-1.26,10.11,10.11,0,0,0-3-.43,10.78,10.78,0,0,0-4.86,1,9.49,9.49,0,0,0-3.33,2.69,11.28,11.28,0,0,0-1.91,3.78,15.37,15.37,0,0,0,0,8.63,11.28,11.28,0,0,0,1.91,3.8,9.49,9.49,0,0,0,3.33,2.69,10.76,10.76,0,0,0,4.86,1,9.11,9.11,0,0,0,3.59-.68,8.51,8.51,0,0,0,2.75-1.84,9.4,9.4,0,0,0,1.87-2.73,10.82,10.82,0,0,0,.92-3.36h2.71a13.85,13.85,0,0,1-1.24,4.47,11,11,0,0,1-2.47,3.38,10.59,10.59,0,0,1-3.57,2.14,13.18,13.18,0,0,1-4.56.75,14.12,14.12,0,0,1-5.88-1.15,12.15,12.15,0,0,1-4.2-3.06,12.8,12.8,0,0,1-2.51-4.44,17.21,17.21,0,0,1,0-10.6,13,13,0,0,1,2.51-4.45,12,12,0,0,1,4.2-3.08,15,15,0,0,1,9.84-.58,11.77,11.77,0,0,1,3.51,1.67,10,10,0,0,1,2.63,2.73,8.84,8.84,0,0,1,1.34,3.72h-2.71A8.3,8.3,0,0,0,258.26,182.08Z"/><path class="cls-4" d="M286.34,176.72v2.18H269.4v9.7h15.86v2.18H269.4v10.6h17.13v2.18H266.69V176.72Z"/><path class="cls-4" d="M312.68,203.56l-.36-4.89h-.08a9.16,9.16,0,0,1-1.77,2.46,9.67,9.67,0,0,1-2.33,1.69,10.65,10.65,0,0,1-2.73,1,14.83,14.83,0,0,1-3,.3,14.12,14.12,0,0,1-5.88-1.15,12.15,12.15,0,0,1-4.2-3.06,12.8,12.8,0,0,1-2.51-4.44,17.21,17.21,0,0,1,0-10.6,13,13,0,0,1,2.51-4.45,12,12,0,0,1,4.2-3.08,14.12,14.12,0,0,1,5.88-1.15,15.4,15.4,0,0,1,4.22.56,11.12,11.12,0,0,1,3.55,1.69,10.19,10.19,0,0,1,4.1,6.65h-2.71a5.8,5.8,0,0,0-.82-2.35,8.31,8.31,0,0,0-1.87-2.16,9.77,9.77,0,0,0-2.81-1.6,10.23,10.23,0,0,0-3.67-.62,10.78,10.78,0,0,0-4.86,1,9.49,9.49,0,0,0-3.33,2.69,11.28,11.28,0,0,0-1.91,3.78,15.37,15.37,0,0,0,0,8.63,11.28,11.28,0,0,0,1.91,3.8,9.49,9.49,0,0,0,3.33,2.69,10.76,10.76,0,0,0,4.86,1,11.36,11.36,0,0,0,4.2-.73,8.8,8.8,0,0,0,3.13-2,8.5,8.5,0,0,0,1.91-3.12,11.15,11.15,0,0,0,.6-3.95h-9.68v-2.18h12.07v13.65Z"/><path class="cls-4" d="M322.56,176.72v24.66H338.5v2.18H319.85V176.72Z"/><path class="cls-4" d="M344.16,176.72v26.84h-2.71V176.72Z"/><path class="cls-4" d="M369.74,176.72v2.18H352.8v9.7h15.86v2.18H352.8v10.6h17.13v2.18H350.09V176.72Z"/><path class="cls-4" d="M386.76,176.72a13.06,13.06,0,0,1,3.33.41,8.28,8.28,0,0,1,2.75,1.26,6.17,6.17,0,0,1,1.87,2.18,6.7,6.7,0,0,1,.7,3.14,7.24,7.24,0,0,1-1.4,4.44,6.42,6.42,0,0,1-4.14,2.41v.07a6.59,6.59,0,0,1,2.31.7,4.58,4.58,0,0,1,1.49,1.3,5.21,5.21,0,0,1,.84,1.82,12.73,12.73,0,0,1,.34,2.24q0,.68.08,1.65t.16,2a11.38,11.38,0,0,0,.38,1.88,3.5,3.5,0,0,0,.7,1.37h-3a3.17,3.17,0,0,1-.38-.92,7.67,7.67,0,0,1-.2-1.13q-.06-.58-.1-1.15t-.08-1q-.08-1.43-.26-2.84a7.44,7.44,0,0,0-.76-2.52,4.54,4.54,0,0,0-1.67-1.79,5.31,5.31,0,0,0-3-.6H376.43v11.92h-2.71V176.72Zm-.2,12.74a7.66,7.66,0,0,0,2.35-.36,6,6,0,0,0,2-1,5.13,5.13,0,0,0,1.34-1.64,4.71,4.71,0,0,0,.5-2.2,5.11,5.11,0,0,0-1.52-3.91,6.53,6.53,0,0,0-4.62-1.43H376.43v10.56Z"/><path class="cls-4" d="M419.95,176.72v2.18H403v9.7h15.86v2.18H403v10.6h17.13v2.18H400.3V176.72Z"/><path class="cls-4" d="M454.66,176.72v2.18H437.72v9.7h15.86v2.18H437.72v10.6h17.13v2.18H435V176.72Zm-12.51-7.44,4.18,5.3h-2l-5.26-5.3Z"/><path class="cls-4" d="M487.77,176.72v2.18H472.43v9.7h13.63v2.18H472.43v12.78h-2.71V176.72Z"/><path class="cls-4" d="M500.28,176.72l11.16,26.84h-2.91l-3.47-8.35h-13l-3.43,8.35h-2.87l11.44-26.84ZM504.15,193l-5.5-13.76L493,193Z"/><path class="cls-4" d="M533.66,182.08a7.78,7.78,0,0,0-2-2.05,9.1,9.1,0,0,0-2.59-1.26,10.1,10.1,0,0,0-3-.43,10.77,10.77,0,0,0-4.86,1,9.49,9.49,0,0,0-3.33,2.69,11.28,11.28,0,0,0-1.91,3.78,15.35,15.35,0,0,0,0,8.63,11.28,11.28,0,0,0,1.91,3.8,9.48,9.48,0,0,0,3.33,2.69,10.76,10.76,0,0,0,4.86,1,9.11,9.11,0,0,0,3.59-.68,8.51,8.51,0,0,0,2.75-1.84,9.41,9.41,0,0,0,1.87-2.73,10.83,10.83,0,0,0,.92-3.36h2.71a13.87,13.87,0,0,1-1.24,4.47,11,11,0,0,1-2.47,3.38,10.59,10.59,0,0,1-3.57,2.14,13.18,13.18,0,0,1-4.56.75,14.12,14.12,0,0,1-5.88-1.15,12.14,12.14,0,0,1-4.2-3.06,12.8,12.8,0,0,1-2.51-4.44,17.2,17.2,0,0,1,0-10.6,13,13,0,0,1,2.51-4.45,12,12,0,0,1,4.2-3.08,15,15,0,0,1,9.84-.58,11.77,11.77,0,0,1,3.51,1.67,10,10,0,0,1,2.63,2.73,8.85,8.85,0,0,1,1.33,3.72h-2.71A8.3,8.3,0,0,0,533.66,182.08Z"/><path class="cls-4" d="M545,176.72v26.84h-2.71V176.72Z"/><path class="cls-4" d="M553.64,176.72v24.66h15.94v2.18H550.93V176.72Z"/><path class="cls-4" d="M592,176.72v2.18H575v9.7H590.9v2.18H575v10.6h17.13v2.18H572.33V176.72Z"/></g></svg>